<?xml version="1.0" encoding="utf-8"?>
<!-- Generator: Adobe Illustrator 16.0.0, SVG Export Plug-In . SVG Version: 6.00 Build 0)  -->
<!DOCTYPE svg PUBLIC "-//W3C//DTD SVG 1.1//EN" "http://www.w3.org/Graphics/SVG/1.1/DTD/svg11.dtd">
<svg version="1.1" id="Vrstva_1" xmlns="http://www.w3.org/2000/svg" xmlns:xlink="http://www.w3.org/1999/xlink" x="0px" y="0px"
	 width="57px" height="57px" viewBox="0 0 57 57" enable-background="new 0 0 57 57" xml:space="preserve">
<linearGradient id="SVGID_1_" gradientUnits="userSpaceOnUse" x1="261.041" y1="303.1006" x2="317.7617" y2="303.1006" gradientTransform="matrix(-1 0 0 1 318.041 -274.8008)">
	<stop  offset="0" style="stop-color:#5D0A39"/>
	<stop  offset="1" style="stop-color:#6E143C"/>
</linearGradient>
<path fill="url(#SVGID_1_)" d="M0.28,28.3c0,15.627,12.698,28.3,28.359,28.3C44.301,56.6,57,43.927,57,28.3
	C57,12.667,44.301,0,28.639,0C12.978,0,0.28,12.667,0.28,28.3z"/>
<g>
	
		<linearGradient id="SVGID_2_" gradientUnits="userSpaceOnUse" x1="76.1182" y1="316.8545" x2="27.7661" y2="316.5585" gradientTransform="matrix(1 0 0 1 -28.2705 -274.8008)">
		<stop  offset="0" style="stop-color:#FAF398"/>
		<stop  offset="0.1318" style="stop-color:#EAD569"/>
		<stop  offset="0.2767" style="stop-color:#DAB73A"/>
		<stop  offset="0.35" style="stop-color:#D3AC2A"/>
		<stop  offset="0.7" style="stop-color:#EEED95"/>
		<stop  offset="1" style="stop-color:#D9B829"/>
	</linearGradient>
	<path fill="url(#SVGID_2_)" d="M47.474,49.455c0,0-0.05,0.043-0.144,0.128c-0.095,0.082-0.232,0.209-0.419,0.367
		c-0.372,0.319-0.922,0.785-1.659,1.327c-0.736,0.544-1.653,1.179-2.761,1.818c-0.556,0.32-1.153,0.646-1.799,0.964
		c-0.646,0.318-1.339,0.625-2.072,0.917c-1.466,0.586-3.111,1.104-4.893,1.462c-0.892,0.183-1.816,0.321-2.767,0.422
		s-1.93,0.144-2.922,0.14c-0.993-0.006-2.005-0.063-3.024-0.181c-1.018-0.112-2.04-0.291-3.058-0.533
		c-2.035-0.479-4.056-1.203-5.947-2.149c-1.901-0.952-3.697-2.09-5.339-3.378c-0.411-0.322-0.811-0.653-1.2-0.994
		c-0.386-0.343-0.766-0.692-1.13-1.048c-0.73-0.715-1.419-1.457-2.053-2.222c-0.636-0.76-1.222-1.541-1.751-2.336
		c-0.525-0.796-1.008-1.595-1.433-2.397c-0.858-1.602-1.494-3.201-1.96-4.71c-0.467-1.51-0.751-2.932-0.92-4.198
		C0.052,31.585,0.004,30.472,0,29.557c-0.006-0.915,0.045-1.632,0.084-2.119c0.018-0.244,0.04-0.43,0.051-0.556s0.02-0.19,0.02-0.19
		s-0.002,0.064-0.006,0.19c-0.002,0.128-0.012,0.313-0.01,0.558c-0.008,0.489,0.004,1.204,0.059,2.111
		c0.059,0.905,0.177,2.003,0.406,3.242c0.23,1.238,0.581,2.619,1.088,4.078c0.256,0.731,0.557,1.477,0.901,2.234
		c0.345,0.759,0.732,1.526,1.169,2.295c0.872,1.537,1.95,3.064,3.204,4.524c0.627,0.728,1.307,1.436,2.024,2.116
		c0.721,0.678,1.484,1.327,2.281,1.95c1.594,1.237,3.347,2.331,5.181,3.238c1.839,0.925,3.767,1.634,5.73,2.106
		c0.488,0.12,0.982,0.221,1.473,0.313c0.492,0.092,0.983,0.168,1.474,0.232c0.982,0.13,1.958,0.203,2.921,0.225
		c1.925,0.041,3.791-0.112,5.534-0.414c0.437-0.073,0.864-0.161,1.285-0.252c0.419-0.095,0.832-0.194,1.235-0.3
		c0.808-0.211,1.579-0.45,2.309-0.71c0.73-0.257,1.421-0.534,2.07-0.816c0.649-0.28,1.256-0.569,1.817-0.86
		c1.123-0.579,2.071-1.147,2.835-1.641c0.762-0.497,1.346-0.914,1.737-1.207c0.198-0.144,0.345-0.259,0.447-0.335
		C47.422,49.494,47.474,49.455,47.474,49.455z"/>
</g>
<g>
	<linearGradient id="SVGID_3_" gradientUnits="userSpaceOnUse" x1="27.5322" y1="38.5098" x2="29.8804" y2="34.7519">
		<stop  offset="0" style="stop-color:#EAD569"/>
		<stop  offset="0.2767" style="stop-color:#BEA133"/>
		<stop  offset="0.6516" style="stop-color:#D9B829"/>
		<stop  offset="1" style="stop-color:#B39322"/>
	</linearGradient>
	<path fill="url(#SVGID_3_)" d="M30.23,36.924c0.09-0.367,0.09-0.738,0.027-1.109c-0.051-0.316-0.164-0.605-0.348-0.852
		c-0.105-0.145-0.23-0.266-0.359-0.379c-0.031-0.027-0.184-0.148-0.215-0.172c0.07,0.07,0.184,0.27,0.242,0.348
		c0.184,0.25,0.191,0.383,0.242,0.703c0.063,0.371,0.063,0.742-0.027,1.105c-0.156,0.637-0.518,1.051-1.059,1.262
		c-0.207,0.078-0.418,0.117-0.633,0.121c-0.43,0.008-0.852-0.055-1.266-0.199c-0.121-0.043-0.35-0.168-0.504-0.258l0.004,0.016
		c0.008,0.023,0.012,0.047,0.016,0.066c0.102,0.129,0.242,0.301,0.254,0.313c0.477,0.563,1.934,0.418,1.934,0.418
		c0.215-0.004,0.426-0.043,0.629-0.123C29.711,37.975,30.074,37.561,30.23,36.924z"/>
	<linearGradient id="SVGID_4_" gradientUnits="userSpaceOnUse" x1="23.8438" y1="37.2383" x2="26.8152" y2="32.4829">
		<stop  offset="0" style="stop-color:#EAD569"/>
		<stop  offset="0.2767" style="stop-color:#BEA133"/>
		<stop  offset="0.6516" style="stop-color:#D9B829"/>
		<stop  offset="1" style="stop-color:#B39322"/>
	</linearGradient>
	<path fill="url(#SVGID_4_)" d="M26.328,37.479c-0.223-0.973-0.664-2.898-0.883-3.855c-0.168-0.719-0.5-2.16-0.5-2.16l-0.387-0.391
		l1.484,6.457l-1.469,0.082c0,0,0.344,0.234,0.355,0.305c0.512,0.051,1.018,0.098,1.535,0.148c-0.008-0.023-0.113-0.488-0.113-0.488
		l-0.02-0.082L26.328,37.479z"/>
	<linearGradient id="SVGID_5_" gradientUnits="userSpaceOnUse" x1="26.7148" y1="42.625" x2="26.7927" y2="42.5004">
		<stop  offset="0" style="stop-color:#EAD569"/>
		<stop  offset="0.2767" style="stop-color:#BEA133"/>
		<stop  offset="0.6516" style="stop-color:#D9B829"/>
		<stop  offset="1" style="stop-color:#B39322"/>
	</linearGradient>
	<path fill="url(#SVGID_5_)" d="M26.348,42.232c-0.02-0.016-0.039-0.031-0.059-0.047c0.102,0.102,0.207,0.191,0.316,0.281
		c0.203,0.16,0.41,0.313,0.613,0.473c-0.051-0.055-0.102-0.105-0.16-0.152C26.824,42.6,26.582,42.42,26.348,42.232z"/>
	<linearGradient id="SVGID_6_" gradientUnits="userSpaceOnUse" x1="27.8086" y1="35.3613" x2="27.8743" y2="35.2561">
		<stop  offset="0" style="stop-color:#EAD569"/>
		<stop  offset="0.2767" style="stop-color:#BEA133"/>
		<stop  offset="0.6516" style="stop-color:#D9B829"/>
		<stop  offset="1" style="stop-color:#B39322"/>
	</linearGradient>
	<path fill="url(#SVGID_6_)" d="M27.648,35.158c-0.145-0.098-0.285-0.195-0.418-0.305c0.004,0.004,0.008,0.012,0.012,0.016
		c0.207,0.203,0.434,0.363,0.668,0.52c0.18,0.121,0.363,0.246,0.543,0.375c-0.059-0.078-0.129-0.141-0.203-0.195
		C28.051,35.428,27.852,35.291,27.648,35.158z"/>
	<linearGradient id="SVGID_7_" gradientUnits="userSpaceOnUse" x1="27.2461" y1="40.9053" x2="28.5255" y2="38.8578">
		<stop  offset="0" style="stop-color:#EAD569"/>
		<stop  offset="0.2767" style="stop-color:#BEA133"/>
		<stop  offset="0.6516" style="stop-color:#D9B829"/>
		<stop  offset="1" style="stop-color:#B39322"/>
	</linearGradient>
	<path fill="url(#SVGID_7_)" d="M27.715,40.131c0.309,0.098,0.59,0.262,0.863,0.449c0.027,0.02,0.055,0.035,0.09,0.059
		c0.145-0.453,0.285-0.895,0.426-1.336c-0.004-0.008-0.004-0.012-0.008-0.016c-0.008-0.008-0.016-0.016-0.023-0.02
		c-0.082-0.055-0.25-0.234-0.332-0.281c-0.137,0.422-0.273,0.852-0.414,1.293c-0.035-0.023-0.016,0.008-0.043-0.012
		c-0.27-0.188-0.555-0.352-0.861-0.445c-0.131-0.043-0.264-0.07-0.396-0.066c-0.043,0.004-0.145,0.016-0.188,0.027
		c-0.309,0.07-0.309,0.34-0.246,0.566c0.031,0.117,0.203,0.203,0.285,0.273c0.066,0.055,0.131,0.113,0.195,0.168
		c-0.051-0.063-0.09-0.133-0.113-0.215c-0.063-0.227,0.043-0.438,0.242-0.492c0.039-0.008,0.086-0.016,0.127-0.016
		C27.453,40.064,27.586,40.092,27.715,40.131z"/>
	<linearGradient id="SVGID_8_" gradientUnits="userSpaceOnUse" x1="22.7568" y1="34.7178" x2="24.225" y2="32.3682">
		<stop  offset="0" style="stop-color:#EAD569"/>
		<stop  offset="0.2767" style="stop-color:#BEA133"/>
		<stop  offset="0.6516" style="stop-color:#D9B829"/>
		<stop  offset="1" style="stop-color:#B39322"/>
	</linearGradient>
	<path fill="url(#SVGID_8_)" d="M23.471,34.865c0.146-0.611,0.291-1.215,0.424-1.82c-0.043-0.277-0.207-0.762-0.25-1.039
		c-0.176,0.879-0.445,1.973-0.652,2.859C23.094,34.873,23.367,34.857,23.471,34.865z"/>
	<linearGradient id="SVGID_9_" gradientUnits="userSpaceOnUse" x1="31.96" y1="36.9082" x2="33.6887" y2="34.1417">
		<stop  offset="0" style="stop-color:#EAD569"/>
		<stop  offset="0.2767" style="stop-color:#BEA133"/>
		<stop  offset="0.6516" style="stop-color:#D9B829"/>
		<stop  offset="1" style="stop-color:#B39322"/>
	</linearGradient>
	<polygon fill="url(#SVGID_9_)" points="31.797,36.807 32.234,36.803 32.215,35.709 33.895,35.838 33.855,34.334 33.508,34.029 
		33.539,35.314 31.742,35.232 	"/>
	<linearGradient id="SVGID_10_" gradientUnits="userSpaceOnUse" x1="28.3262" y1="33.7803" x2="29.6994" y2="31.5827">
		<stop  offset="0" style="stop-color:#EAD569"/>
		<stop  offset="0.2767" style="stop-color:#BEA133"/>
		<stop  offset="0.6516" style="stop-color:#D9B829"/>
		<stop  offset="1" style="stop-color:#B39322"/>
	</linearGradient>
	<path fill="url(#SVGID_10_)" d="M28.848,32.92c0.32,0.078,0.613,0.223,0.898,0.398c0.027,0.016,0.059,0.031,0.094,0.051
		c0.145-0.449,0.289-0.895,0.434-1.344c-0.098-0.055-0.254-0.254-0.348-0.301c-0.004,0-0.004,0-0.004,0
		c-0.137,0.422-0.273,0.84-0.41,1.266c-0.035-0.02-0.064-0.035-0.094-0.055c-0.285-0.172-0.578-0.32-0.898-0.395
		c-0.168-0.043-0.344-0.07-0.516-0.031c-0.027,0.008-0.055,0.016-0.078,0.027c-0.188,0.082-0.395,0.477-0.309,0.686
		c0.039,0.096,0.102,0.17,0.176,0.225c0.043,0.035,0.289,0.047,0.332,0.078c-0.02-0.027-0.035-0.059-0.051-0.094
		c-0.086-0.207-0.008-0.434,0.18-0.516c0.023-0.012,0.051-0.02,0.076-0.023C28.504,32.85,28.678,32.877,28.848,32.92z"/>
	<linearGradient id="SVGID_11_" gradientUnits="userSpaceOnUse" x1="31.832" y1="39.1025" x2="33.3633" y2="36.652">
		<stop  offset="0" style="stop-color:#EAD569"/>
		<stop  offset="0.2767" style="stop-color:#BEA133"/>
		<stop  offset="0.6516" style="stop-color:#D9B829"/>
		<stop  offset="1" style="stop-color:#B39322"/>
	</linearGradient>
	<path fill="url(#SVGID_11_)" d="M33.705,36.865c0,0,0.025,0.906,0.037,1.367c-1.039-0.098-2.316-0.012-3.352-0.113
		c0,0.066,0.355,0.234,0.355,0.305c1.121,0.109,2.238,0.219,3.363,0.324c-0.016-0.535-0.029-1.051-0.043-1.578
		C33.98,37.162,33.705,36.865,33.705,36.865z"/>
	<linearGradient id="SVGID_12_" gradientUnits="userSpaceOnUse" x1="32.0957" y1="34.2334" x2="33.731" y2="31.6164">
		<stop  offset="0" style="stop-color:#EAD569"/>
		<stop  offset="0.2767" style="stop-color:#BEA133"/>
		<stop  offset="0.6516" style="stop-color:#D9B829"/>
		<stop  offset="1" style="stop-color:#B39322"/>
	</linearGradient>
	<path fill="url(#SVGID_12_)" d="M31.816,32.646l0.016,1.328l0.355,0.316c0,0-0.008-0.836-0.012-1.113
		c0.602,0.035,1.188,0.066,1.785,0.102c-0.016-0.492-0.027-0.969-0.039-1.453c-0.086-0.004-0.355-0.313-0.355-0.313l0.031,1.238
		L31.816,32.646z"/>
	<linearGradient id="SVGID_13_" gradientUnits="userSpaceOnUse" x1="28.5654" y1="31.7578" x2="28.8542" y2="31.2957">
		<stop  offset="0" style="stop-color:#EAD569"/>
		<stop  offset="0.2767" style="stop-color:#BEA133"/>
		<stop  offset="0.6516" style="stop-color:#D9B829"/>
		<stop  offset="1" style="stop-color:#B39322"/>
	</linearGradient>
	<path fill="url(#SVGID_13_)" d="M29.063,31.506l-0.359-0.305l-0.344,0.344c0,0,0.285,0.227,0.359,0.309
		C28.852,31.744,29.063,31.506,29.063,31.506z"/>
	<linearGradient id="SVGID_14_" gradientUnits="userSpaceOnUse" x1="30.2363" y1="42.6621" x2="31.6538" y2="40.3937">
		<stop  offset="0" style="stop-color:#EAD569"/>
		<stop  offset="0.2767" style="stop-color:#BEA133"/>
		<stop  offset="0.6516" style="stop-color:#D9B829"/>
		<stop  offset="1" style="stop-color:#B39322"/>
	</linearGradient>
	<path fill="url(#SVGID_14_)" d="M30.512,42.834c0.102,0.012,0.305,0.098,0.402,0.109c0.082-0.41,0.164-0.816,0.238-1.223
		c0.055-0.281,0.102-0.566,0.152-0.848c-0.055-0.266-0.211-0.598-0.266-0.863c-0.082,0.469-0.258,0.902-0.344,1.371
		C30.607,41.85,30.602,42.355,30.512,42.834z"/>
	<linearGradient id="SVGID_15_" gradientUnits="userSpaceOnUse" x1="25.6045" y1="45.9189" x2="28.2468" y2="41.6903">
		<stop  offset="0" style="stop-color:#EAD569"/>
		<stop  offset="0.2767" style="stop-color:#BEA133"/>
		<stop  offset="0.6516" style="stop-color:#D9B829"/>
		<stop  offset="1" style="stop-color:#B39322"/>
	</linearGradient>
	<path fill="url(#SVGID_15_)" d="M29.055,43.193c-0.004-0.012-0.004-0.023-0.004-0.035c-0.059-0.398-0.199-0.754-0.445-1.045
		c-0.109-0.127-0.223-0.252-0.348-0.357c-0.031-0.027-0.238-0.199-0.27-0.227c0.063,0.066,0.25,0.313,0.309,0.383
		c0.246,0.289,0.355,0.668,0.41,1.066c0.055,0.379,0.021,0.695-0.07,1.062c-0.176,0.703-0.586,1.004-1.137,1.184
		c-0.23,0.074-0.473,0.063-0.711,0.023c-0.207-0.031-0.41-0.07-0.609-0.121c-0.262-0.066-0.465-0.082-0.695-0.238
		c-0.02-0.016-0.141-0.105-0.176-0.125c0.012,0.074,0.035,0.211,0.035,0.211l-1.48-0.223c0,0,0.348,0.238,0.359,0.305
		c0.496,0.074,0.98,0.152,1.477,0.223c-0.012-0.078-0.023-0.137-0.035-0.211c0.035,0.021,0.059,0.035,0.082,0.051
		c0.23,0.156,0.473,0.277,0.734,0.344c0.203,0.051,0.406,0.09,0.609,0.121c0.238,0.039,0.479,0.035,0.715-0.023
		c0.301-0.074,0.551-0.211,0.75-0.41C28.719,44.497,28.887,43.845,29.055,43.193z"/>
	<linearGradient id="SVGID_16_" gradientUnits="userSpaceOnUse" x1="20.9102" y1="45.0645" x2="22.4492" y2="42.6015">
		<stop  offset="0" style="stop-color:#EAD569"/>
		<stop  offset="0.2767" style="stop-color:#BEA133"/>
		<stop  offset="0.6516" style="stop-color:#D9B829"/>
		<stop  offset="1" style="stop-color:#B39322"/>
	</linearGradient>
	<path fill="url(#SVGID_16_)" d="M22.098,43.217l-0.301,1.222l-2.313-0.348l0.355,0.305c0,0,1.539,0.232,2.313,0.348
		c0.102-0.406,0.199-0.813,0.301-1.222c0.449,0.066,0.891,0.129,1.336,0.191c-0.008-0.066-0.078-0.262-0.086-0.328
		C23.18,43.311,22.098,43.217,22.098,43.217z"/>
	<linearGradient id="SVGID_17_" gradientUnits="userSpaceOnUse" x1="23.3799" y1="42.8672" x2="25.6712" y2="39.2002">
		<stop  offset="0" style="stop-color:#EAD569"/>
		<stop  offset="0.2767" style="stop-color:#BEA133"/>
		<stop  offset="0.6516" style="stop-color:#D9B829"/>
		<stop  offset="1" style="stop-color:#B39322"/>
	</linearGradient>
	<path fill="url(#SVGID_17_)" d="M25.02,43.856c0.039,0.188,0.133-0.218,0.172-0.031c0.004,0.012,0.004,0.023,0.02,0.031
		c0.008-0.272,0.016-0.546,0.023-0.827c0,0,0,0,0.004,0c-0.23-1.094-0.457-2.188-0.684-3.285c-0.09-0.422-0.266-1.266-0.266-1.266
		L23.91,38.1c0,0,0.203,1.238,0.281,1.621C24.453,40.971,24.758,42.607,25.02,43.856z"/>
	<linearGradient id="SVGID_18_" gradientUnits="userSpaceOnUse" x1="17.8652" y1="40.0771" x2="19.2022" y2="37.9376">
		<stop  offset="0" style="stop-color:#EAD569"/>
		<stop  offset="0.2767" style="stop-color:#BEA133"/>
		<stop  offset="0.6516" style="stop-color:#D9B829"/>
		<stop  offset="1" style="stop-color:#B39322"/>
	</linearGradient>
	<path fill="url(#SVGID_18_)" d="M18.375,40.396c0.105-0.178,0.383-0.461,0.484-0.637c0.043-0.629,0.125-1.875,0.125-1.875
		l-0.355-0.305C18.535,38.979,18.445,39.354,18.375,40.396z"/>
	<linearGradient id="SVGID_19_" gradientUnits="userSpaceOnUse" x1="31.4014" y1="45.5469" x2="34.5501" y2="40.5079">
		<stop  offset="0" style="stop-color:#EAD569"/>
		<stop  offset="0.2767" style="stop-color:#BEA133"/>
		<stop  offset="0.6516" style="stop-color:#D9B829"/>
		<stop  offset="1" style="stop-color:#B39322"/>
	</linearGradient>
	<path fill="url(#SVGID_19_)" d="M32.34,39.209l-0.355-0.305c0,0,1.34,4.976,1.982,7.37c-0.494-0.074-1.674-0.254-1.674-0.254
		l0.355,0.305c0,0,1.105,0.168,1.676,0.254C33.66,44.114,32.34,39.209,32.34,39.209z"/>
	<linearGradient id="SVGID_20_" gradientUnits="userSpaceOnUse" x1="22.0547" y1="38.0205" x2="23.5456" y2="35.6345">
		<stop  offset="0" style="stop-color:#EAD569"/>
		<stop  offset="0.2767" style="stop-color:#BEA133"/>
		<stop  offset="0.6516" style="stop-color:#D9B829"/>
		<stop  offset="1" style="stop-color:#B39322"/>
	</linearGradient>
	<path fill="url(#SVGID_20_)" d="M24.289,36.1l-1.621-0.141l-0.297,1.211l-1.398,0.094l0.357,0.305c0,0,0.979,0.098,1.463,0.137
		c0.102-0.41,0.199-0.809,0.297-1.211c0.473,0.039,0.934,0.082,1.398,0.121C24.477,36.545,24.289,36.1,24.289,36.1z"/>
	<linearGradient id="SVGID_21_" gradientUnits="userSpaceOnUse" x1="29.5625" y1="46.2461" x2="31.2364" y2="43.5674">
		<stop  offset="0" style="stop-color:#EAD569"/>
		<stop  offset="0.2767" style="stop-color:#BEA133"/>
		<stop  offset="0.6516" style="stop-color:#D9B829"/>
		<stop  offset="1" style="stop-color:#B39322"/>
	</linearGradient>
	<path fill="url(#SVGID_21_)" d="M29.914,44.296l-0.262,1.287l-1.289-0.176c0,0,0.379,0.258,0.363,0.316
		c0.086,0.035,1.531,0.246,1.59,0.234c0.09-0.426,0.176-0.855,0.266-1.289c0.52,0.074,1.035,0.145,1.551,0.219
		c-0.016-0.066,0.27-0.592,0.27-0.592H29.914z"/>
	<linearGradient id="SVGID_22_" gradientUnits="userSpaceOnUse" x1="17.623" y1="44.1875" x2="19.1854" y2="41.6872">
		<stop  offset="0" style="stop-color:#EAD569"/>
		<stop  offset="0.2767" style="stop-color:#BEA133"/>
		<stop  offset="0.6516" style="stop-color:#D9B829"/>
		<stop  offset="1" style="stop-color:#B39322"/>
	</linearGradient>
	<path fill="url(#SVGID_22_)" d="M18.642,41.366c-0.029,0.02-0.058,0.038-0.126,0.085c-0.07,0.047-0.141,0.094-0.211,0.141
		c-0.031,0.02-0.043,0.047-0.047,0.09c-0.025,0.426-0.055,0.852-0.082,1.281c-0.016,0.254-0.031,0.508-0.051,0.766
		c0,0.011-0.004,0.026-0.008,0.054C17.801,43.739,17,43.717,17,43.717s0.355,0.296,0.355,0.304c0.402,0.059,0.805,0.125,1.211,0.18
		c0.004-0.027,0.006-0.043,0.008-0.055c0.016-0.258,0.031-0.511,0.051-0.765c0.027-0.43,0.055-0.855,0.082-1.281
		c0-0.043,0.016-0.07,0.047-0.09c0.059-0.039,0.113-0.078,0.172-0.117C18.895,41.779,18.852,41.395,18.642,41.366z"/>
	<linearGradient id="SVGID_23_" gradientUnits="userSpaceOnUse" x1="18.6494" y1="41.3711" x2="18.6741" y2="41.3315">
		<stop  offset="0" style="stop-color:#EAD569"/>
		<stop  offset="0.2767" style="stop-color:#BEA133"/>
		<stop  offset="0.6516" style="stop-color:#D9B829"/>
		<stop  offset="1" style="stop-color:#B39322"/>
	</linearGradient>
	<path fill="url(#SVGID_23_)" d="M18.641,41.365L18.641,41.365C18.691,41.333,18.704,41.323,18.641,41.365z"/>
	<linearGradient id="SVGID_24_" gradientUnits="userSpaceOnUse" x1="21.9346" y1="41.9063" x2="23.6327" y2="39.1886">
		<stop  offset="0" style="stop-color:#EAD569"/>
		<stop  offset="0.2767" style="stop-color:#BEA133"/>
		<stop  offset="0.6516" style="stop-color:#D9B829"/>
		<stop  offset="1" style="stop-color:#B39322"/>
	</linearGradient>
	<path fill="url(#SVGID_24_)" d="M22.125,42.025c0.102,0.012,0.602-0.148,0.703-0.133c0.145-0.609,0.289-1.219,0.422-1.832
		c-0.043-0.289-0.211-0.977-0.254-1.27C22.824,39.693,22.332,41.135,22.125,42.025z"/>
	<linearGradient id="SVGID_25_" gradientUnits="userSpaceOnUse" x1="19.1924" y1="37.6328" x2="23.0762" y2="31.4174">
		<stop  offset="0" style="stop-color:#EAD569"/>
		<stop  offset="0.2767" style="stop-color:#BEA133"/>
		<stop  offset="0.6516" style="stop-color:#D9B829"/>
		<stop  offset="1" style="stop-color:#B39322"/>
	</linearGradient>
	<path fill="url(#SVGID_25_)" d="M20.508,37.51c0.625-2.063,1.59-4.164,2.215-6.23c-0.109-0.008-0.355-0.305-0.355-0.305
		l-2.219,6.227l-1.809-0.184l0.355,0.305C18.695,37.322,20.008,37.471,20.508,37.51z"/>
	<linearGradient id="SVGID_26_" gradientUnits="userSpaceOnUse" x1="19.5762" y1="43.0361" x2="22.3859" y2="38.5396">
		<stop  offset="0" style="stop-color:#EAD569"/>
		<stop  offset="0.2767" style="stop-color:#BEA133"/>
		<stop  offset="0.6516" style="stop-color:#D9B829"/>
		<stop  offset="1" style="stop-color:#B39322"/>
	</linearGradient>
	<path fill="url(#SVGID_26_)" d="M20.695,39.697c0.293-0.484,0.871-1.457,0.871-1.457l0.031-0.09l-0.328-0.309
		c0,0-1.434,2.223-1.641,2.566c-0.031,0.051-0.039,0.094-0.02,0.16c0.297,0.902,0.777,2.18,1.074,3.086
		c0.008,0.023,0.02,0.051,0.037,0.097c0.029-0.097,0.057-0.472,0.084-0.569c-0.25-0.766-0.496-1.527-0.75-2.289
		c-0.02-0.063-0.012-0.109,0.02-0.16C20.285,40.389,20.488,40.041,20.695,39.697z"/>
	<linearGradient id="SVGID_27_" gradientUnits="userSpaceOnUse" x1="18.209" y1="34.9814" x2="20.3849" y2="31.4992">
		<stop  offset="0" style="stop-color:#EAD569"/>
		<stop  offset="0.2767" style="stop-color:#BEA133"/>
		<stop  offset="0.6516" style="stop-color:#D9B829"/>
		<stop  offset="1" style="stop-color:#B39322"/>
	</linearGradient>
	<path fill="url(#SVGID_27_)" d="M19.668,31.299c-0.008-0.059-0.016-0.113-0.023-0.168c-0.031-0.004-0.246-0.297-0.359-0.305
		c0.082,0.707,0,4.418-0.012,4.82c0.027-0.094,0.416-0.496,0.543-0.879C19.789,33.576,19.727,31.721,19.668,31.299z"/>
	<linearGradient id="SVGID_28_" gradientUnits="userSpaceOnUse" x1="21.0107" y1="20.1855" x2="21.6998" y2="19.0828">
		<stop  offset="0" style="stop-color:#EAD569"/>
		<stop  offset="0.2767" style="stop-color:#BEA133"/>
		<stop  offset="0.6516" style="stop-color:#D9B829"/>
		<stop  offset="1" style="stop-color:#B39322"/>
	</linearGradient>
	<path fill="url(#SVGID_28_)" d="M20.949,19.549c-0.008,0.156-0.02,0.43-0.027,0.582c0.094,0,0.184,0,0.27,0
		c0.008-0.074,0.012-0.273,0.016-0.348c0.18-0.008,0.352-0.016,0.527-0.021c0.012-0.182,0.027-0.541,0.027-0.541l-0.125-0.176
		c0,0-0.063,0.379-0.064,0.48C21.363,19.533,21.16,19.541,20.949,19.549z"/>
	<linearGradient id="SVGID_29_" gradientUnits="userSpaceOnUse" x1="25.0723" y1="17.4883" x2="26.2985" y2="15.5259">
		<stop  offset="0" style="stop-color:#EAD569"/>
		<stop  offset="0.2767" style="stop-color:#BEA133"/>
		<stop  offset="0.6516" style="stop-color:#D9B829"/>
		<stop  offset="1" style="stop-color:#B39322"/>
	</linearGradient>
	<path fill="url(#SVGID_29_)" d="M25.301,17.631c0,0,0.363-0.02,0.547-0.031c0.006-0.238,0.012-0.477,0.02-0.715
		c-0.027-0.059-0.051-0.117-0.066-0.184c-0.039-0.148-0.055-0.297-0.051-0.43c0-0.195,0.02-0.371,0.066-0.539
		c0.023-0.08,0.051-0.152,0.086-0.223c0-0.063,0.004-0.193,0.004-0.193l-0.215-0.17c0,0-0.082,1.539-0.102,2.223
		c-0.094,0.004-0.504,0.09-0.504,0.09L25.301,17.631z"/>
	<linearGradient id="SVGID_30_" gradientUnits="userSpaceOnUse" x1="19.2578" y1="19.917" x2="20.3082" y2="18.236">
		<stop  offset="0" style="stop-color:#EAD569"/>
		<stop  offset="0.2767" style="stop-color:#BEA133"/>
		<stop  offset="0.6516" style="stop-color:#D9B829"/>
		<stop  offset="1" style="stop-color:#B39322"/>
	</linearGradient>
	<path fill="url(#SVGID_30_)" d="M19.574,20.088c-0.008-0.035-0.02-0.066-0.027-0.105c-0.035-0.219-0.02-0.434,0.035-0.648
		c0.023-0.098,0.063-0.191,0.117-0.27c0.063-0.098,0.148-0.16,0.254-0.174c0.066-0.006,0.285,0.053,0.344,0.154
		c0.016-0.199,0.219-0.461,0.219-0.461l-0.082-0.27c0,0-0.188,0.328-0.238,0.459c-0.105-0.037-0.203-0.08-0.305-0.107
		c-0.063-0.016-0.129-0.016-0.191-0.008c-0.105,0.012-0.191,0.074-0.258,0.172c-0.055,0.082-0.094,0.172-0.117,0.27
		c-0.055,0.215-0.07,0.43-0.031,0.648C19.324,19.947,19.422,20.057,19.574,20.088z"/>
	<linearGradient id="SVGID_31_" gradientUnits="userSpaceOnUse" x1="26.291" y1="16.6279" x2="26.9722" y2="15.5378">
		<stop  offset="0" style="stop-color:#EAD569"/>
		<stop  offset="0.2767" style="stop-color:#BEA133"/>
		<stop  offset="0.6516" style="stop-color:#D9B829"/>
		<stop  offset="1" style="stop-color:#B39322"/>
	</linearGradient>
	<path fill="url(#SVGID_31_)" d="M26.414,16.658c0.045,0.078,0.109,0.129,0.188,0.145c0.012,0.004,0.02,0.004,0.031,0.004
		c-0.023-0.066-0.039-0.139-0.043-0.215c-0.004-0.051-0.004-0.102-0.008-0.141c0-0.156,0.012-0.297,0.059-0.432
		c0.074-0.225,0.242-0.334,0.449-0.303c-0.004-0.008-0.004-0.016-0.008-0.02c-0.043-0.121-0.123-0.191-0.234-0.211
		c-0.215-0.039-0.387,0.07-0.465,0.301c-0.043,0.133-0.055,0.273-0.055,0.43c0,0.039,0,0.09,0.004,0.145
		C26.342,16.467,26.363,16.568,26.414,16.658z"/>
	<linearGradient id="SVGID_32_" gradientUnits="userSpaceOnUse" x1="26.0762" y1="19.1523" x2="26.5379" y2="18.4134">
		<stop  offset="0" style="stop-color:#EAD569"/>
		<stop  offset="0.2767" style="stop-color:#BEA133"/>
		<stop  offset="0.6516" style="stop-color:#D9B829"/>
		<stop  offset="1" style="stop-color:#B39322"/>
	</linearGradient>
	<path fill="url(#SVGID_32_)" d="M26.188,18.365c-0.004,0.195-0.012,0.66-0.016,0.848c0.09,0.016,0.199,0.004,0.262-0.023
		c0.004-0.102,0.008-0.484,0.012-0.59c0.055-0.008,0.152-0.008,0.203-0.008c0-0.031-0.02-0.082-0.031-0.109
		c-0.016-0.039-0.074-0.063-0.109-0.082C26.406,18.338,26.297,18.357,26.188,18.365z"/>
	<linearGradient id="SVGID_33_" gradientUnits="userSpaceOnUse" x1="21.3633" y1="16.3145" x2="21.6694" y2="15.8246">
		<stop  offset="0" style="stop-color:#EAD569"/>
		<stop  offset="0.2767" style="stop-color:#BEA133"/>
		<stop  offset="0.6516" style="stop-color:#D9B829"/>
		<stop  offset="1" style="stop-color:#B39322"/>
	</linearGradient>
	<path fill="url(#SVGID_33_)" d="M21.574,16.287c0.02-0.004,0.035-0.012,0.051-0.02c0-0.039,0.004-0.168,0.004-0.203
		c0.031-0.004,0.156-0.008,0.189-0.012c0.006-0.016,0.01-0.035,0.014-0.057c0.008-0.09-0.121-0.15-0.195-0.17
		c-0.086-0.02-0.176-0.004-0.262,0.004c-0.008,0.133-0.016,0.344-0.023,0.477c0.059,0,0.102-0.004,0.145-0.008
		C21.52,16.299,21.547,16.295,21.574,16.287z"/>
	<linearGradient id="SVGID_34_" gradientUnits="userSpaceOnUse" x1="19.4004" y1="17.0391" x2="20.0593" y2="15.9846">
		<stop  offset="0" style="stop-color:#EAD569"/>
		<stop  offset="0.2767" style="stop-color:#BEA133"/>
		<stop  offset="0.6516" style="stop-color:#D9B829"/>
		<stop  offset="1" style="stop-color:#B39322"/>
	</linearGradient>
	<path fill="url(#SVGID_34_)" d="M19.5,17.053c0.039,0.078,0.098,0.125,0.172,0.137c0.02,0.002,0.035,0,0.051,0.004
		c-0.004-0.02-0.008-0.035-0.012-0.055c-0.039-0.234-0.02-0.465,0.059-0.688c0.066-0.199,0.207-0.301,0.379-0.289
		c0-0.008-0.002-0.016-0.004-0.023c-0.031-0.125-0.109-0.195-0.229-0.211c-0.182-0.02-0.33,0.082-0.404,0.291
		c-0.074,0.221-0.094,0.453-0.059,0.689C19.461,16.959,19.48,17.006,19.5,17.053z"/>
	<linearGradient id="SVGID_35_" gradientUnits="userSpaceOnUse" x1="21.3184" y1="18.0352" x2="22.2178" y2="16.5958">
		<stop  offset="0" style="stop-color:#EAD569"/>
		<stop  offset="0.2767" style="stop-color:#BEA133"/>
		<stop  offset="0.6516" style="stop-color:#D9B829"/>
		<stop  offset="1" style="stop-color:#B39322"/>
	</linearGradient>
	<path fill="url(#SVGID_35_)" d="M21.523,17.58c-0.164,0.012-0.719,0.098-0.719,0.098l0.215,0.172c0,0,0.055,0,0.078,0
		c0.227-0.012,0.453-0.023,0.684-0.039c0.164-0.012,0.324-0.055,0.463-0.16c0.139-0.107,0.221-0.242,0.252-0.402
		c-0.051-0.074-0.09-0.164-0.117-0.266c-0.027-0.109-0.047-0.215-0.057-0.32c-0.014-0.008-0.029-0.016-0.045-0.023
		s-0.035-0.016-0.051-0.023c0.012,0.035,0.02,0.074,0.025,0.113c0.029,0.289-0.049,0.523-0.264,0.688
		C21.848,17.525,21.688,17.568,21.523,17.58z"/>
	<linearGradient id="SVGID_36_" gradientUnits="userSpaceOnUse" x1="30.7109" y1="15.9375" x2="31.1751" y2="15.1946">
		<stop  offset="0" style="stop-color:#EAD569"/>
		<stop  offset="0.2767" style="stop-color:#BEA133"/>
		<stop  offset="0.6516" style="stop-color:#D9B829"/>
		<stop  offset="1" style="stop-color:#B39322"/>
	</linearGradient>
	<path fill="url(#SVGID_36_)" d="M31.313,16.033c-0.176-0.352-0.531-1.047-0.531-1.047l-0.215-0.172c0,0,0.527,1.055,0.754,1.504
		C31.316,16.225,31.316,16.131,31.313,16.033z"/>
	<linearGradient id="SVGID_37_" gradientUnits="userSpaceOnUse" x1="31.2012" y1="17.2363" x2="32.5125" y2="15.1377">
		<stop  offset="0" style="stop-color:#EAD569"/>
		<stop  offset="0.2767" style="stop-color:#BEA133"/>
		<stop  offset="0.6516" style="stop-color:#D9B829"/>
		<stop  offset="1" style="stop-color:#B39322"/>
	</linearGradient>
	<polygon fill="url(#SVGID_37_)" points="31.117,17.146 31.332,17.318 32.086,17.293 32.039,14.9 31.852,14.725 31.855,17.045 	"/>
	<linearGradient id="SVGID_38_" gradientUnits="userSpaceOnUse" x1="30.4141" y1="19.127" x2="31.0847" y2="18.0536">
		<stop  offset="0" style="stop-color:#EAD569"/>
		<stop  offset="0.2767" style="stop-color:#BEA133"/>
		<stop  offset="0.6516" style="stop-color:#D9B829"/>
		<stop  offset="1" style="stop-color:#B39322"/>
	</linearGradient>
	<path fill="url(#SVGID_38_)" d="M30.508,17.693c0,0,0.32,1.25,0.469,1.785c0.008,0,0.012,0,0.02,0
		c0.027-0.109,0.055-0.223,0.082-0.336c-0.117-0.422-0.355-1.277-0.355-1.277L30.508,17.693z"/>
	<linearGradient id="SVGID_39_" gradientUnits="userSpaceOnUse" x1="26.6289" y1="17.6377" x2="27.9716" y2="15.489">
		<stop  offset="0" style="stop-color:#EAD569"/>
		<stop  offset="0.2767" style="stop-color:#BEA133"/>
		<stop  offset="0.6516" style="stop-color:#D9B829"/>
		<stop  offset="1" style="stop-color:#B39322"/>
	</linearGradient>
	<path fill="url(#SVGID_39_)" d="M26.527,17.533c0.238,0.07,0.48,0.059,0.719-0.016c0.281-0.086,0.484-0.27,0.605-0.551
		c0.203-0.551,0.156-0.961,0.012-1.414c-0.117-0.281-0.348-0.328-0.496-0.406c0.059,0.09,0.262,0.227,0.293,0.352
		c0.086,0.355,0.078,0.711-0.021,1.063c-0.107,0.375-0.334,0.609-0.662,0.711c-0.238,0.074-0.48,0.086-0.719,0.02
		c-0.059-0.02-0.113-0.043-0.164-0.07C26.195,17.377,26.34,17.482,26.527,17.533z"/>
	<linearGradient id="SVGID_40_" gradientUnits="userSpaceOnUse" x1="29.876" y1="17.2793" x2="30.7976" y2="15.8043">
		<stop  offset="0" style="stop-color:#EAD569"/>
		<stop  offset="0.2767" style="stop-color:#BEA133"/>
		<stop  offset="0.6516" style="stop-color:#D9B829"/>
		<stop  offset="1" style="stop-color:#B39322"/>
	</linearGradient>
	<path fill="url(#SVGID_40_)" d="M30.305,17.123l-0.48,0.09l0.219,0.172l0.516-0.027c0,0,0.004-0.906-0.02-1.355
		c-0.086-0.172-0.172-0.348-0.258-0.52c-0.004,0-0.008,0.004-0.016,0.004C30.313,16.029,30.305,17.123,30.305,17.123z"/>
	<linearGradient id="SVGID_41_" gradientUnits="userSpaceOnUse" x1="32.3623" y1="15.3906" x2="32.8325" y2="14.6382">
		<stop  offset="0" style="stop-color:#EAD569"/>
		<stop  offset="0.2767" style="stop-color:#BEA133"/>
		<stop  offset="0.6516" style="stop-color:#D9B829"/>
		<stop  offset="1" style="stop-color:#B39322"/>
	</linearGradient>
	<path fill="url(#SVGID_41_)" d="M32.773,15.268l0.215-0.438l-0.121-0.17c0,0-0.223,0.385-0.262,0.482
		c-0.066,0.004-0.129,0.01-0.195,0.016c-0.008,0.031-0.289,0.082-0.289,0.082l0.156,0.055L32.773,15.268z"/>
	<linearGradient id="SVGID_42_" gradientUnits="userSpaceOnUse" x1="21.2979" y1="17.2139" x2="21.6522" y2="16.6468">
		<stop  offset="0" style="stop-color:#EAD569"/>
		<stop  offset="0.2767" style="stop-color:#BEA133"/>
		<stop  offset="0.6516" style="stop-color:#D9B829"/>
		<stop  offset="1" style="stop-color:#B39322"/>
	</linearGradient>
	<path fill="url(#SVGID_42_)" d="M21.574,17.182c0-0.066,0.004-0.223,0.008-0.289c0.051-0.004,0.191-0.008,0.238-0.008
		c0.004-0.031,0.004-0.066-0.004-0.098c-0.016-0.08-0.168-0.133-0.262-0.137c-0.074-0.004-0.148,0.004-0.227,0.008
		c-0.012,0.156-0.02,0.395-0.027,0.559c0.086-0.008,0.156-0.012,0.223-0.023C21.539,17.193,21.555,17.189,21.574,17.182z"/>
	<linearGradient id="SVGID_43_" gradientUnits="userSpaceOnUse" x1="28.2305" y1="16.5664" x2="28.9096" y2="15.4796">
		<stop  offset="0" style="stop-color:#EAD569"/>
		<stop  offset="0.2767" style="stop-color:#BEA133"/>
		<stop  offset="0.6516" style="stop-color:#D9B829"/>
		<stop  offset="1" style="stop-color:#B39322"/>
	</linearGradient>
	<path fill="url(#SVGID_43_)" d="M28.691,15.639c0.105-0.014,0.203-0.027,0.301-0.008v-0.004c-0.043-0.129-0.133-0.199-0.246-0.227
		c-0.102-0.023-0.203-0.008-0.313,0.004c0,0.428,0,0.852,0,1.289c0.09,0.004,0.172-0.004,0.258-0.027
		C28.691,16.322,28.691,15.979,28.691,15.639z"/>
	<linearGradient id="SVGID_44_" gradientUnits="userSpaceOnUse" x1="27.7871" y1="19.4834" x2="28.6248" y2="18.1428">
		<stop  offset="0" style="stop-color:#EAD569"/>
		<stop  offset="0.2767" style="stop-color:#BEA133"/>
		<stop  offset="0.6516" style="stop-color:#D9B829"/>
		<stop  offset="1" style="stop-color:#B39322"/>
	</linearGradient>
	<path fill="url(#SVGID_44_)" d="M28.094,17.811c0,0-0.043,1.037-0.043,1.465c0,0.078,0.004,0.16,0.02,0.238
		c0.031,0.168,0.121,0.258,0.266,0.277c-0.004-0.016-0.008-0.027-0.008-0.043c-0.016-0.078-0.02-0.16-0.02-0.238
		c0-0.477,0.004-1.531,0.004-1.531L28.094,17.811z"/>
	<linearGradient id="SVGID_45_" gradientUnits="userSpaceOnUse" x1="28.2617" y1="17.5781" x2="29.6881" y2="15.2955">
		<stop  offset="0" style="stop-color:#EAD569"/>
		<stop  offset="0.2767" style="stop-color:#BEA133"/>
		<stop  offset="0.6516" style="stop-color:#D9B829"/>
		<stop  offset="1" style="stop-color:#B39322"/>
	</linearGradient>
	<path fill="url(#SVGID_45_)" d="M28.109,17.482h0.063l0.496-0.027c0,0,0.316-0.023,0.416-0.051
		c0.221-0.066,0.564-0.277,0.701-0.605c0.125-0.43,0.148-0.824,0-1.219c-0.227-0.609-0.926-0.637-0.926-0.637
		s0.719,0.496,0.746,0.629c0.061,0.283,0.055,0.566-0.023,0.84c-0.117,0.422-0.754,0.758-0.754,0.758l-0.414,0.055l-0.52,0.086
		L28.109,17.482z"/>
	<linearGradient id="SVGID_46_" gradientUnits="userSpaceOnUse" x1="22.8955" y1="16.8789" x2="23.8502" y2="15.3511">
		<stop  offset="0" style="stop-color:#EAD569"/>
		<stop  offset="0.2767" style="stop-color:#BEA133"/>
		<stop  offset="0.6516" style="stop-color:#D9B829"/>
		<stop  offset="1" style="stop-color:#B39322"/>
	</linearGradient>
	<path fill="url(#SVGID_46_)" d="M23.152,17.008c-0.004-0.014-0.008-0.025-0.012-0.041c-0.043-0.176-0.035-0.352-0.008-0.531
		c0.02-0.105,0.051-0.207,0.105-0.297c0.074-0.125,0.176-0.191,0.309-0.195c0.117-0.008,0.273,0.117,0.273,0.117l0.066,0.066
		l0.148-0.504L23.93,15.4c0,0-0.172,0.293-0.215,0.414c-0.031-0.012-0.059-0.023-0.086-0.035c-0.109-0.047-0.219-0.074-0.336-0.07
		c-0.137,0.004-0.238,0.07-0.313,0.195c-0.055,0.09-0.086,0.191-0.102,0.301c-0.031,0.176-0.039,0.354,0.004,0.527
		C22.926,16.896,23.016,16.986,23.152,17.008z"/>
	<linearGradient id="SVGID_47_" gradientUnits="userSpaceOnUse" x1="25.8672" y1="20.7266" x2="26.5573" y2="19.6222">
		<stop  offset="0" style="stop-color:#EAD569"/>
		<stop  offset="0.2767" style="stop-color:#BEA133"/>
		<stop  offset="0.6516" style="stop-color:#D9B829"/>
		<stop  offset="1" style="stop-color:#B39322"/>
	</linearGradient>
	<path fill="url(#SVGID_47_)" d="M26.141,20.424c-0.117,0.004-0.566,0.086-0.566,0.086l0.215,0.168c0,0,0.406-0.012,0.607-0.02
		c0.006-0.32,0.014-0.629,0.021-0.949c0.004,0,0.008,0,0.012,0c-0.039-0.078-0.078-0.16-0.121-0.242
		c-0.051,0.004-0.094,0.008-0.148,0.012C26.156,19.795,26.148,20.104,26.141,20.424z"/>
	<linearGradient id="SVGID_48_" gradientUnits="userSpaceOnUse" x1="26.4785" y1="20.2988" x2="27.7071" y2="18.3327">
		<stop  offset="0" style="stop-color:#EAD569"/>
		<stop  offset="0.2767" style="stop-color:#BEA133"/>
		<stop  offset="0.6516" style="stop-color:#D9B829"/>
		<stop  offset="1" style="stop-color:#B39322"/>
	</linearGradient>
	<path fill="url(#SVGID_48_)" d="M27.43,19.068c0.059-0.27,0.047-0.396,0.035-0.555c-0.008-0.133-0.109-0.504-0.457-0.582
		c-0.074-0.02-0.383-0.035-0.477-0.043c0.055,0.098,0.688,0.473,0.691,0.615c0.004,0.291-0.098,0.518-0.301,0.689
		c-0.027,0.023-0.055,0.047-0.09,0.074c0.215,0.371,0.422,0.738,0.645,1.121c-0.195,0.004-0.664,0.082-0.664,0.082l0.215,0.172
		c0,0,0.461-0.016,0.703-0.023c-0.219-0.383-0.43-0.75-0.641-1.121c0.031-0.027,0.063-0.047,0.09-0.07
		C27.297,19.326,27.395,19.213,27.43,19.068z"/>
	<linearGradient id="SVGID_49_" gradientUnits="userSpaceOnUse" x1="24.4375" y1="20.6152" x2="25.9582" y2="18.1817">
		<stop  offset="0" style="stop-color:#EAD569"/>
		<stop  offset="0.2767" style="stop-color:#BEA133"/>
		<stop  offset="0.6516" style="stop-color:#D9B829"/>
		<stop  offset="1" style="stop-color:#B39322"/>
	</linearGradient>
	<path fill="url(#SVGID_49_)" d="M25.523,18.432c-0.18,0.008-0.352,0.018-0.535,0.027c-0.02,0.668-0.039,1.332-0.063,2.004
		c-0.109,0.004-0.551,0.078-0.551,0.078l0.219,0.172c0,0,0.391-0.012,0.59-0.02c0.02-0.668,0.039-1.332,0.063-2.002
		c0.113-0.006,0.426-0.018,0.426-0.018l0.016-0.563l-0.129-0.18C25.559,17.932,25.523,18.322,25.523,18.432z"/>
	<linearGradient id="SVGID_50_" gradientUnits="userSpaceOnUse" x1="28.2422" y1="20.623" x2="29.8714" y2="18.0158">
		<stop  offset="0" style="stop-color:#EAD569"/>
		<stop  offset="0.2767" style="stop-color:#BEA133"/>
		<stop  offset="0.6516" style="stop-color:#D9B829"/>
		<stop  offset="1" style="stop-color:#B39322"/>
	</linearGradient>
	<path fill="url(#SVGID_50_)" d="M27.605,20.072c0.086,0.258,0.457,0.445,0.617,0.5c0.258,0.09,0.516,0.082,0.773,0.004
		c0.285-0.082,0.488-0.281,0.594-0.602c0.102-0.305,0.039-2.059,0.039-2.059l-0.191-0.172c0,0-0.035,1.059-0.035,1.496
		c0,0.172-0.016,0.34-0.066,0.5c-0.109,0.32-0.313,0.52-0.598,0.605c-0.258,0.074-0.516,0.082-0.77-0.008
		C27.926,20.326,27.645,20.092,27.605,20.072z"/>
	<linearGradient id="SVGID_51_" gradientUnits="userSpaceOnUse" x1="31.7119" y1="20.3027" x2="33.1081" y2="18.0683">
		<stop  offset="0" style="stop-color:#EAD569"/>
		<stop  offset="0.2767" style="stop-color:#BEA133"/>
		<stop  offset="0.6516" style="stop-color:#D9B829"/>
		<stop  offset="1" style="stop-color:#B39322"/>
	</linearGradient>
	<path fill="url(#SVGID_51_)" d="M32.023,20.498c0,0,0.402-0.012,0.613-0.02c-0.02-0.906-0.059-2.703-0.059-2.703l-0.215-0.172
		c0,0,0,1.816,0.016,2.641c-0.121,0.004-0.57,0.082-0.57,0.082L32.023,20.498z"/>
	<linearGradient id="SVGID_52_" gradientUnits="userSpaceOnUse" x1="29.7168" y1="20.4375" x2="30.7461" y2="18.7903">
		<stop  offset="0" style="stop-color:#EAD569"/>
		<stop  offset="0.2767" style="stop-color:#BEA133"/>
		<stop  offset="0.6516" style="stop-color:#D9B829"/>
		<stop  offset="1" style="stop-color:#B39322"/>
	</linearGradient>
	<path fill="url(#SVGID_52_)" d="M30.453,19.596c0-0.045-0.004-0.09-0.004-0.133c-0.09-0.344-0.18-0.684-0.27-1.027
		c-0.004,0-0.006,0.004-0.008,0.004c0.008,0.309,0.02,0.613,0.023,0.922c0.006,0.313,0.004,0.621,0.004,0.934
		c-0.039,0.012-0.512,0.086-0.512,0.086l0.215,0.172c0,0,0.488-0.002,0.551-0.025C30.453,20.217,30.457,19.904,30.453,19.596z"/>
	<linearGradient id="SVGID_53_" gradientUnits="userSpaceOnUse" x1="32.2266" y1="17.1992" x2="33.2098" y2="15.6257">
		<stop  offset="0" style="stop-color:#EAD569"/>
		<stop  offset="0.2767" style="stop-color:#BEA133"/>
		<stop  offset="0.6516" style="stop-color:#D9B829"/>
		<stop  offset="1" style="stop-color:#B39322"/>
	</linearGradient>
	<polygon fill="url(#SVGID_53_)" points="32.941,17.236 32.898,15.467 32.68,15.295 32.684,17.002 32.121,17.096 32.336,17.268 	"/>
	<linearGradient id="SVGID_54_" gradientUnits="userSpaceOnUse" x1="30.9531" y1="20.5459" x2="32.1633" y2="18.6092">
		<stop  offset="0" style="stop-color:#EAD569"/>
		<stop  offset="0.2767" style="stop-color:#BEA133"/>
		<stop  offset="0.6516" style="stop-color:#D9B829"/>
		<stop  offset="1" style="stop-color:#B39322"/>
	</linearGradient>
	<path fill="url(#SVGID_54_)" d="M31.598,18.979c-0.051,0.219-0.105,0.434-0.156,0.652c-0.047,0.215-0.098,0.426-0.148,0.645
		c-0.145,0.006-0.582,0.082-0.582,0.082l0.215,0.172c0,0,0.414-0.012,0.621-0.02c0.053-0.219,0.102-0.434,0.152-0.645
		c0.02-0.086,0.039-0.168,0.059-0.25c-0.012-0.422-0.02-0.844-0.004-1.262C31.688,18.557,31.645,18.77,31.598,18.979z"/>
	<linearGradient id="SVGID_55_" gradientUnits="userSpaceOnUse" x1="21.8154" y1="16.4395" x2="22.3579" y2="15.5713">
		<stop  offset="0" style="stop-color:#EAD569"/>
		<stop  offset="0.2767" style="stop-color:#BEA133"/>
		<stop  offset="0.6516" style="stop-color:#D9B829"/>
		<stop  offset="1" style="stop-color:#B39322"/>
	</linearGradient>
	<path fill="url(#SVGID_55_)" d="M21.891,16.451c-0.008,0.004-0.012,0.008-0.016,0.01c0,0.002,0,0.006-0.004,0.014
		c0.02,0.008,0.039,0.016,0.057,0.023c0.096,0.039,0.256,0.016,0.295,0.109c0-0.004,0-0.006,0.004-0.008
		c0.004-0.004,0.008-0.004,0.012-0.008c0.027-0.016,0.188-0.074,0.258-0.453c0.074-0.393-0.082-0.563-0.246-0.625
		c-0.172-0.066-0.375-0.086-0.379-0.086c0.027,0.078,0.41,0.379,0.395,0.484C22.238,16.115,22.059,16.365,21.891,16.451z"/>
	<linearGradient id="SVGID_56_" gradientUnits="userSpaceOnUse" x1="24.3955" y1="16.0332" x2="24.7981" y2="15.3889">
		<stop  offset="0" style="stop-color:#EAD569"/>
		<stop  offset="0.2767" style="stop-color:#BEA133"/>
		<stop  offset="0.6516" style="stop-color:#D9B829"/>
		<stop  offset="1" style="stop-color:#B39322"/>
	</linearGradient>
	<path fill="url(#SVGID_56_)" d="M24.75,15.396l-0.215-0.172c0,0-0.059,0.664-0.059,0.859c0.086-0.004,0.176-0.008,0.262-0.016
		C24.744,15.877,24.75,15.396,24.75,15.396z"/>
	<linearGradient id="SVGID_57_" gradientUnits="userSpaceOnUse" x1="22.6504" y1="19.3301" x2="23.2023" y2="18.4468">
		<stop  offset="0" style="stop-color:#EAD569"/>
		<stop  offset="0.2767" style="stop-color:#BEA133"/>
		<stop  offset="0.6516" style="stop-color:#D9B829"/>
		<stop  offset="1" style="stop-color:#B39322"/>
	</linearGradient>
	<path fill="url(#SVGID_57_)" d="M22.602,18.072c0,0,0.445,1.137,0.648,1.633c0.004-0.035,0.012-0.055,0.012-0.074
		c0-0.09,0.004-0.184,0.008-0.277c-0.152-0.371-0.449-1.111-0.449-1.111L22.602,18.072z"/>
	<linearGradient id="SVGID_58_" gradientUnits="userSpaceOnUse" x1="23.3779" y1="17.9336" x2="24.5367" y2="16.0791">
		<stop  offset="0" style="stop-color:#EAD569"/>
		<stop  offset="0.2767" style="stop-color:#BEA133"/>
		<stop  offset="0.6516" style="stop-color:#D9B829"/>
		<stop  offset="1" style="stop-color:#B39322"/>
	</linearGradient>
	<path fill="url(#SVGID_58_)" d="M23.121,17.727c0.281,0.072,0.488,0.045,0.754-0.078c0.035-0.018,0.043-0.049,0.047-0.088
		c0-0.004,0.001-0.025,0.002-0.042l0.217,0.171c0,0,0.363-0.02,0.539-0.027c0.012-0.316,0.023-0.621,0.031-0.93
		c0.121-0.008,0.328-0.016,0.445-0.023c0.004-0.078,0.004-0.16,0.008-0.238c-0.207-0.004-0.5,0.02-0.707,0.027
		c-0.012,0.313-0.023,0.613-0.033,0.93c-0.091,0.004-0.496,0.089-0.5,0.09c0.003-0.092,0.014-0.32,0.014-0.32l-0.145-0.283
		c0,0-0.059,0.354-0.059,0.389c0,0.041-0.008,0.07-0.045,0.09c-0.268,0.125-0.541,0.174-0.826,0.102
		c-0.047-0.012-0.23-0.098-0.27-0.117C22.684,17.52,22.951,17.684,23.121,17.727z"/>
	<linearGradient id="SVGID_59_" gradientUnits="userSpaceOnUse" x1="23.1104" y1="20.6807" x2="24.5244" y2="18.4177">
		<stop  offset="0" style="stop-color:#EAD569"/>
		<stop  offset="0.2767" style="stop-color:#BEA133"/>
		<stop  offset="0.6516" style="stop-color:#D9B829"/>
		<stop  offset="1" style="stop-color:#B39322"/>
	</linearGradient>
	<path fill="url(#SVGID_59_)" d="M23.949,18.217l-0.078-0.207l-0.051,0.188c0,0-0.059,1.527-0.086,2.301
		c-0.203,0.004-0.727,0.084-0.727,0.084l0.215,0.17c0,0,0.512-0.016,0.766-0.023c0.023-0.59,0.063-1.631,0.079-2.045l0.062,0.053
		l0.352-0.01l0.008-0.236l-0.416,0.057c0.001-0.024,0.002-0.049,0.002-0.049L23.949,18.217z"/>
	<linearGradient id="SVGID_60_" gradientUnits="userSpaceOnUse" x1="21.082" y1="19.2266" x2="21.7641" y2="18.135">
		<stop  offset="0" style="stop-color:#EAD569"/>
		<stop  offset="0.2767" style="stop-color:#BEA133"/>
		<stop  offset="0.6516" style="stop-color:#D9B829"/>
		<stop  offset="1" style="stop-color:#B39322"/>
	</linearGradient>
	<path fill="url(#SVGID_60_)" d="M21.813,18.291l-0.078-0.176c0,0-0.063,0.379-0.066,0.477c-0.223,0.012-0.441,0.02-0.664,0.031
		c-0.008,0.125-0.016,0.402-0.023,0.539c0.09-0.004,0.172,0,0.262,0c0.004-0.047,0.016-0.258,0.02-0.305
		c0.176-0.01,0.348-0.018,0.523-0.027C21.793,18.65,21.813,18.291,21.813,18.291z"/>
	<linearGradient id="SVGID_61_" gradientUnits="userSpaceOnUse" x1="21.125" y1="21.1699" x2="22.522" y2="18.9343">
		<stop  offset="0" style="stop-color:#EAD569"/>
		<stop  offset="0.2767" style="stop-color:#BEA133"/>
		<stop  offset="0.6516" style="stop-color:#D9B829"/>
		<stop  offset="1" style="stop-color:#B39322"/>
	</linearGradient>
	<path fill="url(#SVGID_61_)" d="M20.582,20.83c0,0,0.828-0.02,1.238-0.041c0.002-0.03,0.004-0.06,0.005-0.09
		c0.059,0.043,0.124,0.076,0.124,0.076s0.453,0.004,0.512-0.02c0.016-0.453,0.051-0.906,0.061-1.363
		c-0.08-0.203-0.158-0.406-0.24-0.609c-0.004,0.004-0.012,0.004-0.016,0.008c0.012,0.578-0.039,1.156-0.059,1.73
		c-0.024,0.01-0.233,0.045-0.375,0.062c0.001-0.01,0.001-0.021,0.002-0.03c-0.061,0-0.084-0.219-0.084-0.219l-0.117-0.266
		c0,0-0.063,0.379-0.066,0.488c-0.324,0.016-1.199,0.102-1.199,0.102L20.582,20.83z"/>
	<linearGradient id="SVGID_62_" gradientUnits="userSpaceOnUse" x1="19.6855" y1="17.9355" x2="20.9524" y2="15.9082">
		<stop  offset="0" style="stop-color:#EAD569"/>
		<stop  offset="0.2767" style="stop-color:#BEA133"/>
		<stop  offset="0.6516" style="stop-color:#D9B829"/>
		<stop  offset="1" style="stop-color:#B39322"/>
	</linearGradient>
	<path fill="url(#SVGID_62_)" d="M19.723,17.912c0.121,0.031,0.242,0.027,0.363,0.012c0.301-0.039,0.535-0.188,0.686-0.457
		c0.029-0.48,0.057-0.961,0.084-1.438c-0.051-0.301-0.367-0.395-0.488-0.453c0.059,0.098,0.305,0.379,0.324,0.514
		c0.043,0.314,0.02,0.627-0.078,0.928c-0.137,0.41-0.41,0.625-0.785,0.676c-0.121,0.016-0.242,0.016-0.359-0.012
		c-0.059-0.016-0.109-0.035-0.16-0.059C19.402,17.771,19.539,17.869,19.723,17.912z"/>
	<linearGradient id="SVGID_63_" gradientUnits="userSpaceOnUse" x1="19.5039" y1="20.8975" x2="20.1161" y2="19.9177">
		<stop  offset="0" style="stop-color:#EAD569"/>
		<stop  offset="0.2767" style="stop-color:#BEA133"/>
		<stop  offset="0.6516" style="stop-color:#D9B829"/>
		<stop  offset="1" style="stop-color:#B39322"/>
	</linearGradient>
	<path fill="url(#SVGID_63_)" d="M20.328,20.596c0.008-0.129,0.008-0.383,0.008-0.383l-0.104-0.223c0,0-0.061,0.391-0.064,0.445
		c0,0.043-0.016,0.07-0.051,0.09c-0.266,0.121-0.535,0.164-0.813,0.102c-0.063-0.016-0.184-0.039-0.234-0.066
		c0.098,0.152,0.344,0.301,0.488,0.301C20.141,20.861,20.359,20.596,20.328,20.596z"/>
</g>
<linearGradient id="SVGID_64_" gradientUnits="userSpaceOnUse" x1="16.999" y1="28" x2="37" y2="28">
	<stop  offset="0" style="stop-color:#FAF398"/>
	<stop  offset="0.1318" style="stop-color:#EAD569"/>
	<stop  offset="0.7" style="stop-color:#EEED95"/>
	<stop  offset="1" style="stop-color:#D9B829"/>
</linearGradient>
<path fill-rule="evenodd" clip-rule="evenodd" fill="url(#SVGID_64_)" d="M29.916,12.334l-0.65-1.841l-0.605-0.281l-4.293,0.666
	l-0.563,0.418l-0.434,1.62l-1.105,0.055l0.789-2.491l0.992-0.75l4.707-0.688l1.406,0.641l1.133,2.53L29.916,12.334z M29.266,10.659
	l-0.605-0.281l-4.223,0.652l-0.582,1.831l1.039-0.129l0.262-1.112l0.52-0.387l3.586-0.555L29.266,10.659z M31.105,9.886
	l-1.344-0.588l0.48,0.221l1.172,2.679l0.734-0.074L31.105,9.886z M36.461,45.013L37,44.755l-2.172-32.292l-0.504,0.277l-0.918-0.359
	l1.082,34.269l-2.262-0.348l2.352,0.656l1.199-1.637l-1.453-32.042L36.461,45.013z M29.328,24.865c-0.289,0-0.57,0-0.859,0
	c-0.004,0.973-0.012,1.943-0.016,2.91c0.082,0.023,0.527,0.031,0.594,0.008c0-0.227,0-0.453,0-0.68s0.004-0.457,0-0.684
	c0-0.227-0.012-0.449-0.02-0.676c0.02,0.02,0.029,0.035,0.039,0.055c0.273,0.637,0.547,1.273,0.824,1.91
	c0.059,0.133,0.023,0.113,0.164,0.117c0.492,0.016,0.984,0.023,1.48,0.035c0.016,0,0.035-0.004,0.055-0.008
	c0.043-0.188,0.082-0.371,0.125-0.559c0.281,0.008,0.559,0.012,0.832,0.02c0.051,0.197,0.094,0.383,0.143,0.574
	c0.26,0.008,0.514,0.014,0.779,0.02c-0.313-1.023-0.621-2.035-0.934-3.047c-0.313,0-0.613,0-0.914,0
	c-0.004,0.008-0.006,0.008-0.008,0.012c-0.25,0.941-0.5,1.883-0.75,2.828c0,0.004-0.004,0.008-0.004,0.016
	c-0.004,0.002-0.004,0.004-0.008,0.008h-0.004c-0.004,0-0.004,0-0.008-0.004c-0.012-0.945-0.02-1.895-0.027-2.855
	c-0.207,0-0.402-0.004-0.609,0.004c0.008,0.676,0.02,1.34,0.027,2.023C29.926,26.205,29.625,25.533,29.328,24.865z M31.852,26.627
	c0.078-0.41,0.156-0.809,0.238-1.227c0.102,0.418,0.195,0.82,0.293,1.227C32.203,26.627,32.031,26.627,31.852,26.627z
	 M26.816,30.619c0-0.205,0.004-0.41,0.008-0.613c0-0.027-0.004-0.063,0.027-0.078c0.039-0.027,0.082-0.059,0.125-0.086
	c0.125,0.309,0.242,0.609,0.363,0.91c0.318,0.016,0.629,0.027,0.941,0.043c0.035-0.156,0.07-0.297,0.105-0.443
	c0.211,0.01,0.414,0.018,0.621,0.025c0.035,0.156,0.066,0.301,0.098,0.457c0.191,0.008,0.383,0.016,0.57,0.023
	c0.004-0.027,0.004-0.043,0.008-0.066c0.16,0.086,0.324,0.113,0.496,0.125c0.152,0.008,0.297-0.012,0.441-0.082
	c0.449-0.219,0.445-0.941,0.141-1.195c-0.078-0.063-0.16-0.121-0.246-0.176c-0.09-0.063-0.188-0.117-0.281-0.18
	c-0.027-0.02-0.059-0.043-0.078-0.074c-0.059-0.078-0.035-0.184,0.051-0.215c0.039-0.016,0.078-0.016,0.121-0.016
	c0.133,0.004,0.256,0.055,0.375,0.117c0.031,0.012,0.059,0.027,0.094,0.047c0.055-0.168,0.109-0.328,0.16-0.492
	c-0.313-0.168-0.629-0.246-0.961-0.141c-0.145,0.047-0.262,0.141-0.336,0.293c-0.098,0.199-0.105,0.617,0.105,0.844
	c0.086,0.098,0.191,0.168,0.297,0.234c0.082,0.049,0.164,0.098,0.242,0.148c0.027,0.016,0.055,0.039,0.078,0.063
	c0.039,0.043,0.059,0.098,0.047,0.16c-0.016,0.066-0.059,0.105-0.113,0.117c-0.051,0.008-0.102,0.012-0.152,0.008
	c-0.18-0.02-0.348-0.086-0.504-0.18c-0.023-0.012-0.047-0.023-0.08-0.039c0,0.09,0,0.164,0,0.234c-0.006,0-0.01,0.004-0.014,0.004
	c-0.176-0.648-0.348-1.297-0.523-1.945c-0.234-0.008-0.461-0.016-0.691-0.02c-0.188,0.672-0.371,1.34-0.555,2.008
	c-0.006,0-0.012,0-0.016,0c-0.145-0.332-0.289-0.66-0.43-0.988c0.104-0.176,0.203-0.344,0.305-0.512
	c0.098-0.164,0.199-0.328,0.301-0.508c-0.184-0.008-0.355-0.012-0.523-0.02c-0.039-0.004-0.055,0.031-0.07,0.063
	c-0.164,0.273-0.324,0.551-0.484,0.828c-0.008,0.016-0.02,0.031-0.027,0.047c-0.008,0-0.012-0.002-0.016-0.004
	c0.004-0.313,0.008-0.625,0.016-0.949c-0.172,0-0.336,0-0.508,0c-0.016,0.77-0.031,1.535-0.043,2.309
	c0.172,0.008,0.336,0.016,0.508,0.021C26.813,30.682,26.813,30.65,26.816,30.619z M28.895,29.83c-0.133,0-0.262,0-0.398,0
	c0.07-0.32,0.133-0.629,0.203-0.961C28.766,29.201,28.832,29.518,28.895,29.83z M32.363,17.604
	c-0.297,0.016-0.578,0.027-0.867,0.043c-0.152,0.633-0.307,1.266-0.461,1.895c-0.004,0-0.012,0-0.016,0
	c-0.172-0.613-0.34-1.23-0.512-1.848c-0.281,0.014-0.559,0.027-0.832,0.039c-0.02,0.117-0.008,2.582,0.012,2.648
	c0.156,0.012,0.488,0,0.551-0.023c0-0.313,0.004-0.621,0-0.934c-0.004-0.309-0.018-0.617-0.027-0.922
	c0.004-0.004,0.008-0.004,0.012-0.004c0.16,0.621,0.324,1.238,0.488,1.859c0.211-0.008,0.414-0.012,0.621-0.02
	c0.051-0.219,0.102-0.434,0.152-0.645c0.051-0.219,0.102-0.434,0.152-0.652c0.051-0.211,0.094-0.422,0.156-0.629
	c-0.023,0.637,0.016,1.27,0.016,1.914c0.207-0.008,0.402-0.012,0.613-0.02C32.402,19.4,32.383,18.506,32.363,17.604z M24.629,28.326
	c-0.109,0.367-0.211,0.727-0.316,1.086c-0.109,0.355-0.207,0.719-0.332,1.068c0.023-0.717,0.047-1.436,0.074-2.154
	c-0.133-0.023-0.383-0.023-0.438,0c-0.016,0.5-0.031,1.004-0.047,1.527c-0.02-0.051-0.035-0.086-0.047-0.121
	c-0.168-0.457-0.338-0.914-0.504-1.371c-0.02-0.055-0.045-0.078-0.102-0.078c-0.164,0-0.328-0.008-0.488-0.012
	c-0.02,0-0.039,0.004-0.063,0.008c-0.035,0.746-0.068,1.488-0.102,2.242c0.145,0.006,0.285,0.012,0.43,0.016
	c0.02-0.52,0.039-1.031,0.059-1.543c0-0.002,0.004-0.004,0.008-0.004c0.191,0.527,0.379,1.051,0.57,1.578
	c0.395,0.02,0.781,0.035,1.176,0.055c0.035-0.148,0.07-0.285,0.109-0.43c0.199,0.008,0.395,0.016,0.59,0.023
	c0.027,0.152,0.055,0.297,0.082,0.441c0.184,0.008,0.363,0.016,0.551,0.023c-0.188-0.785-0.367-1.555-0.555-2.34
	C25.063,28.338,24.848,28.33,24.629,28.326z M24.949,28.756c0.055,0.32,0.109,0.621,0.164,0.93c-0.063,0.023-0.125,0-0.184,0
	c-0.063,0.004-0.125,0-0.195,0C24.809,29.373,24.875,29.072,24.949,28.756z M21.316,25.674c0.23,0.648,0.465,1.301,0.695,1.949
	c0.16,0.02,0.746,0.027,0.805,0.008c0.039-0.926,0.078-1.855,0.121-2.789c-0.184-0.004-0.359-0.008-0.543,0
	c-0.025,0.637-0.051,1.266-0.078,1.906c-0.234-0.645-0.469-1.277-0.703-1.91c-0.258,0-0.512,0-0.77,0
	c-0.051,0.922-0.102,1.836-0.156,2.754c0.184,0.008,0.352,0.012,0.531,0.02c0.02-0.328,0.035-0.648,0.051-0.969
	s0.023-0.645,0.035-0.965C21.309,25.674,21.313,25.674,21.316,25.674z M26.348,27.74c0.254,0.004,0.504,0.016,0.758,0.016
	c0.113,0,0.227-0.012,0.336-0.035c0.414-0.094,0.699-0.363,0.84-0.82c0.113-0.383,0.125-0.773,0.035-1.166
	c-0.086-0.381-0.293-0.643-0.617-0.783c-0.145-0.059-0.293-0.09-0.449-0.094c-0.273-0.004-0.551,0-0.828,0
	c-0.02,0-0.039,0.004-0.063,0.008c-0.02,0.957-0.039,1.91-0.059,2.867C26.328,27.736,26.34,27.74,26.348,27.74z M26.988,25.49
	c0.164-0.012,0.32-0.027,0.465,0.074c0.098,0.066,0.16,0.172,0.191,0.297c0.02,0.09,0.035,0.188,0.039,0.281
	c0.012,0.172,0,0.344-0.039,0.512c-0.07,0.289-0.227,0.434-0.488,0.441C27.098,27.1,27.039,27.1,26.965,27.1
	C26.973,26.557,26.98,26.025,26.988,25.49z M22.324,18.846c0.227,0.578,0.453,1.156,0.684,1.734
	c0.258-0.008,0.508-0.016,0.766-0.023c0.031-0.852,0.066-1.691,0.098-2.547c-0.176,0.01-0.34,0.02-0.512,0.027
	c-0.004,0.047-0.008,0.09-0.012,0.133c-0.016,0.508-0.031,1.016-0.047,1.523c0,0.02-0.004,0.035-0.012,0.074
	c-0.234-0.578-0.457-1.137-0.684-1.695c-0.25,0.012-0.492,0.023-0.738,0.035c-0.047,0.84-0.09,1.672-0.133,2.5
	c0.082,0.016,0.453,0,0.512-0.023c0.02-0.574,0.074-1.152,0.059-1.732C22.313,18.85,22.316,18.848,22.324,18.846z M29.828,17.213
	c0.172-0.008,0.34-0.016,0.516-0.027c-0.012-0.555,0.012-1.096-0.035-1.637c0.004,0,0.01-0.004,0.016-0.004
	c0.266,0.531,0.527,1.066,0.793,1.602c0.262-0.012,0.52-0.027,0.777-0.039c-0.016-0.801-0.027-1.59-0.043-2.383
	c-0.18,0.014-0.348,0.027-0.523,0.039c0.012,0.539,0.02,1.07,0.031,1.617c-0.27-0.531-0.527-1.047-0.793-1.566
	c-0.246,0.016-0.492,0.031-0.738,0.051C29.828,15.654,29.828,16.432,29.828,17.213z M27.484,17.896
	c-0.008,0.512-0.016,1.023-0.02,1.535c0,0.094,0.008,0.191,0.023,0.285c0.055,0.344,0.227,0.582,0.52,0.684
	c0.258,0.09,0.516,0.082,0.77,0.004c0.285-0.082,0.492-0.281,0.598-0.602c0.055-0.16,0.066-0.332,0.07-0.5
	c0-0.49-0.004-0.98-0.004-1.469c0-0.027-0.004-0.055-0.004-0.09c-0.211,0.012-0.414,0.02-0.621,0.031c0,0.043,0,0.078,0,0.109
	c-0.004,0.488-0.004,0.973-0.012,1.461c0,0.09-0.012,0.18-0.035,0.262c-0.027,0.121-0.098,0.199-0.203,0.227
	c-0.055,0.016-0.117,0.023-0.176,0.02c-0.154-0.012-0.246-0.102-0.277-0.277c-0.016-0.078-0.023-0.16-0.023-0.238
	c0.004-0.477,0.008-0.949,0.008-1.426c0.004-0.031,0-0.063,0-0.104c-0.207,0.01-0.406,0.018-0.609,0.029
	C27.488,17.869,27.484,17.883,27.484,17.896z M26.813,20.471c0.234-0.008,0.461-0.016,0.703-0.023
	c-0.219-0.383-0.43-0.75-0.641-1.117c0.031-0.029,0.063-0.051,0.09-0.074c0.199-0.172,0.305-0.398,0.297-0.691
	c-0.008-0.311-0.133-0.516-0.395-0.613c-0.152-0.055-0.309-0.07-0.469-0.063c-0.234,0.008-0.473,0.023-0.707,0.035
	c-0.016,0-0.031,0.004-0.051,0.008c-0.023,0.859-0.043,1.715-0.066,2.574c0.207-0.004,0.406-0.012,0.605-0.02
	c0.008-0.32,0.016-0.629,0.023-0.945c0.051-0.004,0.098-0.008,0.148-0.012C26.508,19.846,26.66,20.158,26.813,20.471z
	 M26.227,18.428c0.113-0.012,0.223-0.027,0.324,0.033c0.031,0.021,0.063,0.061,0.078,0.1c0.059,0.152-0.016,0.352-0.152,0.41
	c-0.066,0.027-0.172,0.039-0.262,0.023C26.219,18.807,26.223,18.623,26.227,18.428z M31.07,24.396c-0.004,0-0.008,0.004-0.016,0.004
	c-0.188-0.637-0.375-1.273-0.559-1.898c-0.215,0-0.418,0-0.621,0c-0.18,0.652-0.359,1.297-0.535,1.938
	c-0.004,0.012-0.004,0.027-0.004,0.039c0,0,0,0.004,0.004,0.008c0,0.002,0,0.004,0.004,0.008c0.16,0,0.324,0,0.492,0
	c0.027-0.125,0.059-0.246,0.086-0.371c0.188,0,0.367,0,0.555,0c0.031,0.125,0.059,0.25,0.09,0.371c0.555,0,1.105,0,1.652,0
	c0-0.148,0-0.293,0-0.449c-0.227,0-0.449,0-0.676,0c-0.008-0.523-0.016-1.035-0.023-1.551c-0.16,0-0.313,0-0.469,0
	C31.059,23.135,31.063,23.764,31.07,24.396z M30.02,23.67c0.055-0.262,0.109-0.52,0.164-0.777c0.004,0,0.008-0.004,0.012-0.004
	c0.059,0.258,0.117,0.516,0.18,0.781C30.254,23.67,30.141,23.67,30.02,23.67z M24.82,27.701c0.473,0.012,0.934,0.023,1.406,0.035
	c0-0.219,0-0.43,0-0.648c-0.246-0.004-0.496-0.012-0.754-0.016c0.008-0.184,0.012-0.355,0.016-0.535c0.086,0,0.16,0,0.238,0
	s0.156,0.004,0.234,0.004c0.074-0.004,0.152,0.008,0.234-0.008c0-0.207,0-0.41,0-0.625c-0.23,0-0.457,0-0.691,0
	c0.004-0.152,0.004-0.293,0.016-0.441c0.094,0,0.176,0,0.258,0.004c0.082,0,0.164,0,0.242,0c0.082-0.004,0.164,0.012,0.254-0.008
	c0-0.203,0-0.402,0-0.605c-0.453,0-0.906,0-1.371,0C24.875,25.807,24.848,26.748,24.82,27.701z M26.418,21.471
	c-0.109,0-0.211,0-0.313,0c0-0.066,0-0.125,0-0.188c0.031-0.004,0.059-0.004,0.082-0.004c0.07-0.004,0.141-0.004,0.211-0.008
	c0.023-0.004,0.043-0.016,0.074-0.023c0.09,0.34,0.18,0.688,0.27,1.027c0.125,0,0.238,0,0.355,0
	c0.121-0.406,0.238-0.813,0.357-1.219c0.006,0.004,0.01,0.004,0.018,0.004c-0.008,0.398-0.012,0.801-0.016,1.199
	c0.105,0,0.203,0,0.313,0c0-0.16,0-0.313,0-0.461c0.055-0.027,0.078-0.004,0.098,0.039c0.059,0.121,0.121,0.234,0.176,0.355
	c0.023,0.055,0.055,0.07,0.105,0.07c0.285-0.008,0.57-0.012,0.855-0.016c0.023,0,0.047-0.004,0.07-0.008c0-0.098,0-0.188,0-0.293
	c-0.125,0-0.242,0-0.359,0c0-0.082,0-0.156,0-0.234c0.113-0.004,0.223-0.008,0.332-0.012c0-0.102,0-0.188,0-0.285
	c-0.113,0-0.223,0-0.328,0c0-0.07,0-0.129,0-0.197c0.121-0.002,0.238-0.006,0.359-0.01c-0.004-0.102,0.008-0.191-0.004-0.287
	c-0.227,0.006-0.441,0.014-0.668,0.018c-0.004,0.414-0.004,0.824-0.004,1.24c-0.066-0.072-0.27-0.432-0.289-0.498
	c0.023-0.023,0.047-0.043,0.07-0.064c0.105-0.111,0.129-0.252,0.098-0.404c-0.031-0.148-0.129-0.215-0.25-0.24
	c-0.063-0.014-0.121-0.018-0.184-0.018c-0.221,0.004-0.441,0.012-0.66,0.016c-0.012,0-0.027,0.004-0.047,0.008
	c-0.07,0.293-0.141,0.584-0.215,0.883c-0.031-0.152-0.059-0.297-0.088-0.438c-0.029-0.148-0.064-0.293-0.092-0.434
	c-0.156-0.02-0.871,0.008-0.934,0.031c-0.012,0.422-0.023,0.848-0.031,1.27c0.121,0.016,0.598,0,0.652-0.023
	c0-0.086,0-0.176,0-0.273c-0.117,0-0.23,0-0.34,0c0-0.082,0-0.152,0-0.234c0.113,0,0.215,0,0.324,0
	C26.418,21.654,26.418,21.568,26.418,21.471z M27.777,21.23c0.031-0.002,0.063-0.006,0.094-0.002
	c0.07,0.004,0.105,0.039,0.113,0.105c0.008,0.074-0.027,0.148-0.09,0.168c-0.035,0.012-0.07,0.012-0.117,0.018
	C27.777,21.416,27.777,21.33,27.777,21.23z M27.957,17.311c0.164-0.008,0.332-0.012,0.496-0.027
	c0.141-0.008,0.281-0.016,0.414-0.051c0.371-0.094,0.637-0.336,0.754-0.758c0.078-0.277,0.086-0.559,0.023-0.84
	c-0.07-0.326-0.25-0.535-0.527-0.635c-0.117-0.041-0.234-0.064-0.355-0.057c-0.266,0.014-0.527,0.031-0.789,0.047
	c-0.016,0-0.031,0.008-0.055,0.012c-0.008,0.766-0.016,1.531-0.023,2.309C27.926,17.311,27.941,17.311,27.957,17.311z
	 M28.477,15.467c0.109-0.014,0.207-0.029,0.309-0.006c0.117,0.025,0.207,0.1,0.246,0.225c0.027,0.086,0.045,0.18,0.055,0.27
	c0.012,0.152,0,0.301-0.043,0.445c-0.051,0.176-0.156,0.285-0.313,0.328c-0.082,0.023-0.168,0.031-0.254,0.025
	C28.477,16.318,28.477,15.893,28.477,15.467z M25.84,16.76c0.082,0.32,0.262,0.527,0.543,0.605c0.23,0.066,0.461,0.055,0.684-0.016
	c0.316-0.098,0.527-0.32,0.631-0.676c0.096-0.332,0.104-0.672,0.021-1.01s-0.281-0.541-0.578-0.607
	c-0.223-0.047-0.445-0.033-0.66,0.039c-0.316,0.105-0.523,0.34-0.625,0.699c-0.047,0.168-0.063,0.344-0.063,0.539
	C25.789,16.467,25.805,16.615,25.84,16.76z M26.426,15.85c0.078-0.23,0.25-0.34,0.461-0.301c0.113,0.02,0.191,0.09,0.238,0.207
	c0.023,0.063,0.039,0.129,0.047,0.195c0.02,0.191,0.018,0.383-0.027,0.57c-0.078,0.313-0.289,0.385-0.502,0.344
	c-0.08-0.016-0.143-0.066-0.189-0.148c-0.051-0.09-0.07-0.191-0.078-0.293c-0.008-0.055-0.008-0.105-0.008-0.145
	C26.367,16.123,26.379,15.982,26.426,15.85z M32.199,30.514c0.035,0.16,0.074,0.309,0.109,0.465
	c0.203,0.008,0.402,0.016,0.609,0.027c-0.242-0.832-0.484-1.652-0.723-2.465c-0.25-0.008-0.484-0.016-0.727-0.023
	c-0.207,0.797-0.414,1.59-0.625,2.395c0.211,0.008,0.402,0.02,0.602,0.027c0.035-0.152,0.066-0.297,0.1-0.453
	C31.77,30.494,31.98,30.506,32.199,30.514z M32.07,29.963c-0.141-0.004-0.277-0.012-0.418-0.016
	c0.066-0.328,0.125-0.648,0.191-0.977C31.918,29.303,31.992,29.627,32.07,29.963z M20.773,24.834c-0.43,0-0.848,0-1.27,0
	c-0.059,0.91-0.121,1.813-0.18,2.73c0.438,0.008,0.863,0.02,1.293,0.031c0.012-0.215,0.023-0.41,0.035-0.621
	c-0.234-0.004-0.465-0.01-0.703-0.016c0.012-0.176,0.023-0.34,0.031-0.512c0.223,0,0.434,0,0.652,0
	c0.012-0.203,0.02-0.395,0.031-0.594c-0.219-0.004-0.426-0.008-0.645-0.012c0.008-0.145,0.016-0.277,0.025-0.414
	c0.232,0,0.455,0,0.697,0C20.754,25.229,20.762,25.033,20.773,24.834z M25.691,15.146c-0.188,0.016-0.363,0.016-0.539,0.043
	c-0.008,0.277-0.016,0.549-0.027,0.824c-0.203,0.016-0.402,0.031-0.605,0.039c-0.004-0.281,0.023-0.551,0.016-0.828
	c-0.18,0.012-0.348,0.023-0.523,0.037c-0.031,0.756-0.059,1.5-0.086,2.256c0.188-0.008,0.359-0.02,0.539-0.027
	c0.012-0.316,0.023-0.621,0.031-0.93c0.211-0.008,0.41-0.035,0.613-0.031c-0.008,0.313-0.016,0.617-0.023,0.93
	c0.186-0.012,0.359-0.02,0.547-0.027C25.652,16.662,25.672,15.908,25.691,15.146z M22.008,16.428
	c0.004-0.002,0.012-0.004,0.016-0.008c0.172-0.086,0.258-0.242,0.285-0.447c0.035-0.252-0.063-0.436-0.27-0.506
	c-0.074-0.021-0.148-0.043-0.223-0.039c-0.281,0.008-0.563,0.023-0.844,0.039c-0.012,0-0.023,0.012-0.039,0.018
	c-0.043,0.729-0.086,1.455-0.129,2.193c0.031,0,0.055,0,0.078,0c0.227-0.012,0.453-0.021,0.684-0.039
	c0.164-0.012,0.32-0.053,0.461-0.16c0.215-0.164,0.293-0.402,0.266-0.688c-0.016-0.16-0.098-0.27-0.23-0.324
	c-0.02-0.008-0.039-0.016-0.059-0.023C22.008,16.436,22.008,16.432,22.008,16.428z M21.367,16.721
	c0.078-0.004,0.152-0.014,0.227-0.008c0.098,0.004,0.156,0.055,0.172,0.137c0.02,0.105-0.02,0.227-0.094,0.273
	c-0.031,0.02-0.07,0.035-0.105,0.039c-0.07,0.012-0.141,0.016-0.223,0.023C21.352,17.021,21.359,16.877,21.367,16.721z
	 M21.414,15.893c0.09-0.008,0.176-0.027,0.262-0.004c0.078,0.02,0.113,0.078,0.104,0.168c-0.01,0.105-0.068,0.176-0.166,0.199
	c-0.023,0.008-0.051,0.012-0.078,0.012c-0.043,0.004-0.086,0.004-0.141,0.008C21.402,16.143,21.406,16.021,21.414,15.893z
	 M21.113,14.342c0.082-0.078,0.148-0.168,0.176-0.291c0.059-0.275,0-0.533-0.336-0.568c-0.223-0.02-0.445,0.023-0.664,0.039
	c-0.027,0.105-0.121,1.613-0.105,1.68c0.125-0.008,0.246-0.016,0.375-0.027c0.016-0.207,0.027-0.408,0.043-0.613
	c0.035,0,0.066,0,0.098,0c0.09,0.195,0.176,0.389,0.266,0.586c0.434-0.031,0.863-0.063,1.297-0.094
	c0.004-0.133,0.012-0.254,0.018-0.379c-0.162,0.01-0.314,0.02-0.475,0.031c0.008-0.113,0.012-0.211,0.016-0.313
	c0.152-0.016,0.297-0.027,0.441-0.039c0.008-0.129,0.012-0.242,0.02-0.367c-0.148,0.01-0.289,0.02-0.438,0.031
	c0.004-0.094,0.008-0.176,0.012-0.262c0.16-0.012,0.313-0.027,0.473-0.039c0.008-0.125,0.012-0.242,0.02-0.367
	c-0.297,0.023-0.582,0.043-0.867,0.074c-0.031,0.531-0.061,1.051-0.09,1.57c0,0.004-0.002,0.012-0.004,0.016
	c0,0.004-0.004,0.004-0.008,0.008c0,0-0.004,0-0.012,0c-0.105-0.199-0.215-0.398-0.328-0.609
	C21.066,14.383,21.09,14.361,21.113,14.342z M20.805,13.834c0.07,0.008,0.109,0.063,0.105,0.145
	c-0.004,0.105-0.055,0.184-0.145,0.211c-0.043,0.014-0.086,0.016-0.145,0.023c0.008-0.133,0.016-0.254,0.023-0.383
	C20.703,13.83,20.754,13.826,20.805,13.834z M28.32,14.26c0.094-0.324,0.191-0.648,0.285-0.971c0.016-0.057,0.039-0.08,0.09-0.08
	c0.07-0.004,0.141-0.012,0.211-0.016c0.031-0.004,0.066-0.002,0.109-0.002c0,0.463,0,0.92,0,1.385
	c0.148-0.012,0.293-0.02,0.441-0.031c0-0.473,0-0.93,0-1.395c0.137-0.012,0.266-0.023,0.391-0.035c0-0.137,0-0.262,0-0.395
	c-0.535,0.045-1.059,0.09-1.59,0.133c-0.105,0.418-0.203,0.832-0.301,1.234c-0.09-0.383-0.184-0.781-0.277-1.184
	c-0.164,0.012-0.32,0.025-0.484,0.039c0.164,0.582,0.328,1.15,0.496,1.727c0.125-0.008,0.246-0.016,0.363-0.023
	c0.051-0.004,0.098-0.008,0.152-0.014C28.246,14.502,28.285,14.381,28.32,14.26z M18.98,17.119c0.051,0.34,0.234,0.555,0.527,0.625
	c0.121,0.027,0.242,0.023,0.359,0.008c0.379-0.047,0.648-0.262,0.785-0.672c0.102-0.301,0.125-0.613,0.078-0.93
	c-0.051-0.373-0.258-0.598-0.586-0.637c-0.105-0.012-0.215-0.008-0.32,0.004c-0.375,0.055-0.639,0.281-0.773,0.691
	c-0.066,0.203-0.09,0.41-0.098,0.625C18.961,16.93,18.965,17.025,18.98,17.119z M20.156,16.955
	c-0.047,0.145-0.129,0.258-0.266,0.289c-0.059,0.012-0.117,0.016-0.176,0.008c-0.074-0.012-0.137-0.059-0.172-0.137
	c-0.02-0.047-0.039-0.098-0.047-0.148c-0.039-0.234-0.02-0.465,0.059-0.688c0.07-0.207,0.219-0.309,0.402-0.289
	c0.117,0.016,0.195,0.086,0.23,0.211c0.023,0.098,0.031,0.199,0.043,0.297C20.219,16.654,20.203,16.807,20.156,16.955z
	 M20.367,20.658c0.418-0.016,0.828-0.02,1.238-0.039c0.012-0.191,0.02-0.371,0.031-0.551c-0.121,0-0.232,0-0.344,0
	c-0.105,0-0.215,0-0.328,0c0.008-0.152,0.016-0.301,0.027-0.457c0.211-0.008,0.412-0.016,0.621-0.023
	c0.004-0.188,0.023-0.359,0.023-0.543c-0.211,0.008-0.41,0.016-0.617,0.023c0.008-0.137,0.016-0.258,0.025-0.383
	c0.225-0.012,0.439-0.021,0.664-0.031c0.01-0.184,0.027-0.355,0.025-0.539c-0.41,0.018-0.809,0.035-1.215,0.055
	C20.469,19.002,20.418,19.822,20.367,20.658z M20.047,30.42c0.23,0.008,0.457,0.031,0.684,0.016
	c0.313-0.016,0.549-0.191,0.688-0.516c0.145-0.336,0.172-0.695,0.098-1.063c-0.035-0.18-0.117-0.336-0.25-0.449
	c-0.141-0.125-0.301-0.172-0.473-0.184c-0.184-0.012-0.363-0.012-0.547-0.02c-0.031,0-0.059,0-0.094,0
	c-0.047,0.738-0.09,1.473-0.133,2.199C20.035,30.412,20.039,30.42,20.047,30.42z M20.584,28.709c0.068,0,0.127-0.004,0.186,0
	c0.143,0.02,0.234,0.117,0.268,0.277c0.047,0.234,0.033,0.473-0.045,0.699c-0.063,0.172-0.18,0.254-0.34,0.258
	c-0.043,0-0.086,0-0.137,0C20.539,29.521,20.563,29.115,20.584,28.709z M25.48,14.826c0.016-0.457,0.02-0.91,0.043-1.359
	c0.129-0.012,0.246-0.023,0.371-0.033c0.008-0.131,0.012-0.252,0.008-0.381c-0.109,0.008-0.207,0.016-0.305,0.023
	c-0.264,0.021-0.527,0.047-0.789,0.066c-0.047,0.002-0.074,0.02-0.078,0.066c-0.086-0.016-0.164-0.037-0.246-0.043
	c-0.082-0.008-0.164-0.008-0.246,0.004c-0.152,0.02-0.293,0.078-0.402,0.211c-0.199,0.242-0.148,0.617,0.109,0.77
	c0.059,0.035,0.125,0.063,0.184,0.094c0.051,0.023,0.102,0.045,0.148,0.078c0.074,0.051,0.07,0.148-0.004,0.199
	c-0.035,0.02-0.078,0.031-0.117,0.035c-0.133,0.012-0.266-0.016-0.395-0.07c-0.023-0.012-0.047-0.02-0.086-0.035
	c-0.004,0.148-0.008,0.281-0.012,0.41c0.012,0.012,0.02,0.02,0.023,0.021c0.02,0.01,0.035,0.014,0.055,0.021
	c0.164,0.063,0.332,0.055,0.5,0.027c0.098-0.016,0.188-0.057,0.27-0.117c0.113-0.086,0.195-0.197,0.223-0.352
	c0.055-0.309-0.043-0.449-0.215-0.543c-0.043-0.027-0.094-0.047-0.141-0.07c-0.059-0.031-0.121-0.059-0.184-0.094
	c-0.035-0.02-0.07-0.049-0.066-0.105c0.004-0.055,0.039-0.086,0.082-0.102c0.02-0.004,0.039-0.012,0.055-0.012
	c0.063,0.004,0.125,0.004,0.184,0.016c0.066,0.012,0.129,0.035,0.195,0.055c0.023-0.055,0.047-0.109,0.078-0.18
	c0.008,0.043,0.008,0.066,0.014,0.098c0.123-0.008,0.24-0.016,0.363-0.023c-0.014,0.451-0.025,0.895-0.041,1.355
	C25.203,14.846,25.34,14.838,25.48,14.826z M20.355,18.271c-0.133-0.063-0.273-0.094-0.414-0.102
	c-0.461-0.016-0.816,0.184-1.031,0.664c-0.168,0.389-0.203,0.805-0.121,1.223c0.066,0.34,0.254,0.563,0.555,0.633
	c0.281,0.063,0.551,0.02,0.813-0.105c0.039-0.016,0.051-0.043,0.055-0.09c0.008-0.152,0.016-0.305,0.027-0.461
	c0-0.012-0.004-0.023-0.004-0.047c-0.043,0.02-0.078,0.035-0.113,0.055c-0.133,0.059-0.262,0.109-0.406,0.113
	c-0.211,0.008-0.34-0.105-0.383-0.344c-0.035-0.219-0.02-0.434,0.031-0.648c0.027-0.098,0.066-0.189,0.121-0.27
	c0.063-0.098,0.148-0.16,0.254-0.172c0.064-0.008,0.133-0.008,0.191,0.008c0.102,0.027,0.199,0.066,0.309,0.105
	c0.063-0.164,0.129-0.336,0.195-0.52C20.402,18.299,20.379,18.283,20.355,18.271z M25.566,18.494
	c-0.004-0.195,0.012-0.375,0.008-0.566c-0.553,0.027-1.094,0.055-1.641,0.082c-0.008,0.191-0.012,0.371-0.02,0.555
	c0.18,0.004,0.352-0.025,0.523-0.012c-0.008,0.23-0.016,0.449-0.023,0.668s-0.016,0.441-0.02,0.664
	c-0.008,0.215-0.027,0.434-0.016,0.656c0.199-0.008,0.391-0.012,0.59-0.018c0.02-0.67,0.039-1.334,0.063-2.002
	C25.211,18.51,25.383,18.502,25.566,18.494z M24.176,24.936c-0.012,0.406-0.027,0.814-0.043,1.223
	c-0.008,0.219-0.012,0.441-0.031,0.664c-0.027,0.254-0.152,0.348-0.371,0.305c-0.031-0.004-0.059-0.016-0.086-0.02
	c-0.016-0.004-0.031-0.008-0.055-0.012c-0.008,0.203-0.016,0.402-0.023,0.598c0.148,0.051,0.285,0.059,0.426,0.047
	c0.301-0.02,0.516-0.184,0.641-0.5c0.07-0.18,0.102-0.371,0.113-0.566c0.008-0.207,0.012-0.418,0.02-0.625
	c0.012-0.375,0.023-0.746,0.035-1.121c0-0.023-0.004-0.047-0.008-0.074c-0.203,0-0.402,0-0.609,0
	C24.18,24.889,24.176,24.912,24.176,24.936z M25.469,24.482c0.016,0.008,0.023,0.012,0.027,0.012
	c0.223-0.004,0.449,0.012,0.676-0.016c0.336-0.035,0.578-0.293,0.66-0.668c0.047-0.199,0.055-0.402,0.02-0.605
	c-0.047-0.297-0.191-0.504-0.449-0.594c-0.074-0.027-0.156-0.043-0.234-0.047c-0.203-0.004-0.402,0-0.605,0
	c-0.012,0-0.02,0.004-0.043,0.008C25.504,23.217,25.486,23.85,25.469,24.482z M25.945,22.99c0.086-0.008,0.164-0.016,0.242,0.008
	c0.105,0.035,0.172,0.117,0.195,0.234c0.043,0.191,0.039,0.383-0.02,0.57c-0.043,0.141-0.129,0.227-0.258,0.246
	c-0.059,0.012-0.117,0.008-0.188,0.016C25.93,23.697,25.938,23.346,25.945,22.99z M25.355,23.123
	c-0.063-0.297-0.223-0.484-0.484-0.551c-0.133-0.031-0.262-0.031-0.395-0.004c-0.258,0.051-0.449,0.211-0.547,0.492
	c-0.105,0.313-0.117,0.633-0.031,0.953c0.066,0.25,0.215,0.41,0.441,0.477c0.156,0.047,0.316,0.043,0.477,0.004
	c0.234-0.059,0.398-0.223,0.488-0.473c0.066-0.176,0.082-0.363,0.094-0.555C25.383,23.354,25.379,23.236,25.355,23.123z
	 M24.887,23.842c-0.047,0.168-0.152,0.242-0.305,0.238c-0.113,0-0.195-0.063-0.238-0.18c-0.02-0.059-0.031-0.121-0.039-0.18
	c-0.02-0.184-0.012-0.363,0.055-0.535c0.059-0.156,0.18-0.234,0.324-0.207c0.098,0.016,0.164,0.074,0.203,0.18
	c0.035,0.094,0.051,0.227,0.051,0.375C24.922,23.635,24.914,23.74,24.887,23.842z M27.938,22.514c0,0.043,0,0.074,0,0.109
	c-0.004,0.344-0.004,0.691-0.012,1.035c0,0.074-0.008,0.148-0.023,0.219c-0.031,0.121-0.113,0.184-0.234,0.184
	c-0.117,0.004-0.203-0.055-0.232-0.18c-0.018-0.078-0.025-0.158-0.025-0.238c0-0.34,0.008-0.684,0.012-1.023
	c0-0.031,0-0.063,0-0.094c-0.152,0-0.293,0-0.441,0c-0.004,0.043-0.008,0.078-0.008,0.117c-0.004,0.355-0.012,0.715-0.016,1.07
	c0,0.066,0.004,0.129,0.012,0.195c0.035,0.301,0.201,0.512,0.461,0.578c0.125,0.031,0.254,0.035,0.383,0.012
	c0.27-0.043,0.457-0.203,0.535-0.512c0.023-0.094,0.035-0.199,0.035-0.301c0.008-0.363,0.008-0.73,0.008-1.098
	c0-0.023,0-0.043-0.004-0.074C28.234,22.514,28.09,22.514,27.938,22.514z M23.902,15.377c-0.016-0.01-0.035-0.016-0.051-0.023
	c-0.18-0.074-0.363-0.094-0.551-0.074c-0.34,0.035-0.613,0.211-0.781,0.563c-0.18,0.383-0.207,0.789-0.102,1.203
	c0.07,0.273,0.238,0.447,0.484,0.512c0.285,0.07,0.563,0.02,0.828-0.105c0.035-0.016,0.043-0.047,0.047-0.086
	c0-0.105,0.004-0.211,0.008-0.313c0.004-0.043,0.004-0.086,0.008-0.141c-0.031,0.012-0.051,0.02-0.07,0.027
	c-0.063,0.027-0.129,0.059-0.195,0.086c-0.094,0.039-0.195,0.059-0.301,0.051c-0.156-0.016-0.258-0.104-0.301-0.281
	c-0.045-0.176-0.035-0.352-0.008-0.531c0.02-0.105,0.051-0.207,0.102-0.297c0.078-0.125,0.18-0.191,0.313-0.195
	c0.117-0.008,0.23,0.023,0.34,0.07c0.023,0.012,0.051,0.02,0.086,0.035c0.059-0.164,0.117-0.32,0.176-0.479
	C23.914,15.385,23.91,15.381,23.902,15.377z M23.77,22.6c-0.137,0-0.27,0-0.41,0c-0.008,0.234-0.02,0.461-0.031,0.695
	c-0.16,0-0.316,0-0.477,0c0.012-0.234,0.02-0.457,0.027-0.684c-0.145,0-0.277,0-0.414,0c-0.031,0.633-0.059,1.254-0.088,1.879
	c0.143,0,0.279,0,0.42,0c0.012-0.254,0.023-0.508,0.035-0.766c0.164-0.006,0.32-0.008,0.48-0.004
	c-0.008,0.264-0.02,0.516-0.029,0.77c0.146,0,0.283,0,0.422,0C23.73,24.318,23.785,22.666,23.77,22.6z M18.922,30.369
	c0.328,0.016,0.656,0.027,0.992,0.043c0.01-0.172,0.02-0.328,0.031-0.496c-0.188-0.008-0.363-0.016-0.547-0.023
	c0.008-0.141,0.016-0.273,0.027-0.41c0.172,0.004,0.336,0.012,0.504,0.016c0.008-0.16,0.02-0.313,0.027-0.477
	c-0.168-0.008-0.332-0.016-0.504-0.023c0.008-0.117,0.016-0.223,0.023-0.328c0.188,0,0.363,0,0.547,0
	c-0.004-0.156,0.027-0.309,0.016-0.469c-0.328-0.008-0.652-0.016-0.977-0.027C19.039,28.275,18.908,30.291,18.922,30.369z
	 M18.523,27.607c0.293-0.012,0.512-0.164,0.641-0.473c0.027-0.066,0.051-0.141,0.07-0.215c0.059-0.211,0.066-0.43,0.082-0.648
	c0.023-0.379,0.051-0.762,0.074-1.141c0.008-0.098,0.012-0.195,0.018-0.301c-0.193,0-0.381,0-0.568,0
	c-0.004,0.02-0.004,0.035-0.008,0.051c-0.035,0.535-0.074,1.066-0.113,1.602c-0.008,0.125-0.016,0.246-0.059,0.363
	c-0.039,0.113-0.113,0.176-0.219,0.176c-0.059,0-0.113-0.016-0.168-0.023c-0.02-0.004-0.039-0.008-0.063-0.012
	c-0.016,0.195-0.027,0.383-0.043,0.57C18.289,27.6,18.406,27.615,18.523,27.607z M20.004,24.494c0.117,0,0.23,0.004,0.348,0
	c0.09,0,0.184,0,0.273-0.008c0.305-0.039,0.496-0.293,0.477-0.633c-0.008-0.145-0.059-0.258-0.184-0.32
	c-0.012-0.004-0.023-0.012-0.047-0.027c0.145-0.07,0.219-0.188,0.242-0.348c0.039-0.254-0.045-0.422-0.258-0.482
	c-0.07-0.021-0.148-0.033-0.223-0.037c-0.18-0.004-0.363,0-0.547,0.004c-0.016,0-0.031,0.004-0.051,0.008
	c-0.039,0.609-0.078,1.219-0.117,1.84C19.953,24.49,19.98,24.494,20.004,24.494z M20.367,23.721
	c0.078-0.016,0.152-0.016,0.225,0.008c0.061,0.023,0.092,0.082,0.092,0.156c0.004,0.094-0.035,0.168-0.105,0.199
	c-0.074,0.027-0.148,0.016-0.234,0.012C20.352,23.967,20.359,23.846,20.367,23.721z M20.41,23.025
	c0.074-0.012,0.145-0.02,0.215,0.008c0.09,0.039,0.105,0.184,0.023,0.258c-0.027,0.023-0.063,0.043-0.094,0.047
	c-0.051,0.008-0.102,0-0.164,0C20.398,23.229,20.402,23.131,20.41,23.025z M32.309,24.49c0.098,0.02,1.004,0.016,1.066-0.004
	c-0.004-0.145-0.008-0.289-0.016-0.445c-0.195,0-0.379,0-0.566,0c-0.016-0.113-0.016-0.309,0.004-0.383c0.164,0,0.336,0,0.516,0
	c-0.008-0.152-0.012-0.297-0.016-0.445c-0.184,0-0.352,0-0.531,0c0-0.102,0-0.199,0-0.301c0.188-0.012,0.375-0.008,0.564-0.016
	c0.002-0.152-0.006-0.293-0.014-0.438c-0.352,0.004-0.695,0.012-1.047,0.016C32.285,23.154,32.297,23.822,32.309,24.49z
	 M30.258,20.951c0.012,0.023,0.02,0.043,0.031,0.063c0.07,0.145,0.133,0.293,0.207,0.43c0.098,0.172,0.148,0.357,0.129,0.566
	c-0.004,0.066,0,0.133,0,0.195c0.09,0.02,0.262,0.016,0.32-0.008c0-0.145,0-0.289-0.004-0.434c0-0.051,0.008-0.094,0.031-0.141
	c0.105-0.223,0.207-0.449,0.309-0.676c0.012-0.023,0.02-0.051,0.027-0.072c-0.117,0-0.227,0-0.336,0
	c-0.066,0.162-0.129,0.318-0.195,0.488c-0.07-0.17-0.137-0.326-0.203-0.48c-0.207,0.006-0.406,0.014-0.609,0.018
	c0,0.293,0,0.578,0,0.867c-0.004,0-0.008,0-0.012,0c-0.133-0.281-0.266-0.566-0.395-0.844c-0.141,0-0.273,0-0.414,0
	c0,0.443,0,0.879,0,1.313c0.098,0,0.188,0,0.277,0c0-0.301,0-0.59,0-0.883c0.039,0.059,0.066,0.121,0.098,0.184
	c0.094,0.207,0.189,0.418,0.285,0.629c0.012,0.027,0.02,0.066,0.059,0.066c0.125,0,0.25,0,0.383,0c0-0.434,0-0.855,0-1.273
	C30.25,20.955,30.254,20.955,30.258,20.951z M18.498,24.072c0.064,0.219,0.189,0.359,0.385,0.418
	c0.125,0.035,0.25,0.039,0.375,0.016c0.227-0.043,0.398-0.172,0.5-0.406c0.137-0.324,0.164-0.664,0.086-1.008
	c-0.051-0.238-0.191-0.387-0.402-0.441c-0.055-0.012-0.105-0.02-0.16-0.023c-0.395-0.012-0.668,0.191-0.773,0.637
	c-0.031,0.133-0.043,0.277-0.055,0.355C18.453,23.814,18.461,23.947,18.498,24.072z M19.398,23.885
	c-0.055,0.145-0.148,0.219-0.281,0.215c-0.105-0.004-0.18-0.063-0.215-0.176c-0.016-0.047-0.023-0.094-0.027-0.145
	c-0.016-0.18,0-0.355,0.059-0.523c0.055-0.156,0.164-0.23,0.297-0.219c0.098,0.008,0.168,0.063,0.195,0.168
	c0.023,0.086,0.031,0.176,0.039,0.219C19.457,23.611,19.445,23.752,19.398,23.885z M26.855,12.967c-0.039,0-0.066,0-0.098,0.004
	c-0.129,0.012-0.254,0.023-0.383,0.031c-0.086,0.008-0.086,0.008-0.113,0.098c-0.164,0.537-0.33,1.074-0.496,1.609
	c-0.008,0.031-0.016,0.059-0.023,0.098c0.16-0.012,0.313-0.02,0.465-0.031c0.027-0.115,0.059-0.223,0.09-0.336
	c0.172-0.012,0.34-0.025,0.504-0.035c0.027,0.113,0.051,0.215,0.078,0.324c0.156-0.012,0.305-0.023,0.473-0.033
	C27.184,14.107,27.02,13.537,26.855,12.967z M26.719,14.01c-0.109,0.012-0.211,0.02-0.324,0.027
	c0.055-0.238,0.109-0.465,0.164-0.691c0.008,0,0.012,0,0.016,0C26.621,13.564,26.668,13.783,26.719,14.01z M22.371,15.049
	c0.195-0.016,0.395-0.02,0.59-0.055c0.34-0.055,0.57-0.27,0.668-0.652c0.039-0.152,0.047-0.305,0.035-0.461
	c-0.02-0.242-0.113-0.434-0.324-0.527c-0.066-0.031-0.145-0.055-0.219-0.055c-0.223,0.004-0.449,0.021-0.676,0.033
	C22.418,13.486,22.352,14.98,22.371,15.049z M22.82,13.686c0.082-0.016,0.156-0.027,0.234-0.004c0.078,0.02,0.137,0.074,0.16,0.164
	c0.051,0.205,0.039,0.406-0.051,0.598c-0.035,0.072-0.09,0.121-0.156,0.148c-0.074,0.031-0.145,0.043-0.23,0.031
	C22.793,14.311,22.809,14.002,22.82,13.686z M31.691,12.584c-0.086,0.031-0.16,0.086-0.223,0.156
	c-0.168,0.182-0.18,0.609,0.082,0.777c0.055,0.035,0.113,0.064,0.176,0.094c0.074,0.035,0.148,0.063,0.223,0.096
	c0.031,0.014,0.063,0.029,0.086,0.053c0.059,0.051,0.059,0.131,0,0.18c-0.027,0.02-0.059,0.035-0.09,0.043
	c-0.055,0.008-0.109,0.012-0.168,0.01c-0.121-0.008-0.238-0.033-0.352-0.082c-0.023-0.01-0.047-0.014-0.07-0.021
	c0,0.148,0,0.289,0,0.426c0.012,0.008,0.02,0.016,0.027,0.018c0.016,0.008,0.035,0.014,0.051,0.021
	c0.227,0.078,0.453,0.066,0.676,0.004c0.121-0.035,0.223-0.105,0.313-0.207c0.16-0.191,0.207-0.641-0.121-0.813
	c-0.082-0.041-0.164-0.074-0.246-0.113c-0.066-0.031-0.137-0.059-0.199-0.098c-0.074-0.051-0.07-0.145,0.012-0.186
	c0.039-0.021,0.086-0.029,0.133-0.029c0.109-0.008,0.211,0.023,0.316,0.059c0.02,0.008,0.043,0.012,0.07,0.02
	c0.043-0.131,0.086-0.254,0.129-0.387C32.234,12.498,31.965,12.48,31.691,12.584z M29.91,14.514c0.332-0.023,0.66-0.047,0.984-0.07
	c0-0.141,0-0.27,0-0.406c-0.18,0.014-0.352,0.027-0.531,0.039c0-0.117,0-0.225,0-0.334c0.168-0.014,0.324-0.027,0.484-0.041
	c0-0.133,0-0.258,0-0.391c-0.168,0.012-0.324,0.023-0.488,0.035c0-0.098,0-0.18,0-0.273c0.176-0.016,0.348-0.031,0.527-0.047
	c0-0.139,0-0.262-0.004-0.391c-0.332,0.027-0.652,0.055-0.973,0.082C29.91,13.318,29.91,13.912,29.91,14.514z M23.32,22.334
	c0.004-0.035,0.004-0.066,0.008-0.094c0.004-0.113,0.012-0.223,0.012-0.332c0-0.051,0.016-0.098,0.035-0.141
	c0.102-0.201,0.195-0.402,0.293-0.605c0.016-0.027,0.027-0.059,0.045-0.098c-0.088,0-0.166,0.004-0.248,0
	c-0.043-0.004-0.066,0.02-0.082,0.063c-0.043,0.109-0.092,0.219-0.137,0.324c-0.012,0.02-0.023,0.039-0.039,0.066
	c-0.053-0.152-0.102-0.297-0.152-0.434c-0.016-0.004-0.027-0.008-0.037-0.008c-0.139,0.004-0.275,0.008-0.412,0.008
	c-0.031,0-0.051,0.016-0.07,0.047c-0.039,0.07-0.082,0.137-0.125,0.207c-0.051,0.082-0.102,0.168-0.152,0.254
	c-0.004-0.004-0.012-0.004-0.016-0.008c0.008-0.16,0.012-0.32,0.02-0.48c-0.094,0-0.184,0-0.281,0
	c-0.02,0.418-0.039,0.832-0.063,1.25c0.102,0,0.188,0,0.281,0c0.004-0.039,0.008-0.07,0.01-0.105c0.002-0.074,0.006-0.152,0.01-0.23
	c0.004-0.096,0.006-0.098,0.09-0.133c0.008,0.02,0.018,0.039,0.023,0.059c0.047,0.113,0.09,0.23,0.133,0.348
	c0.012,0.027,0.02,0.059,0.055,0.055c0.094,0,0.184,0,0.289-0.004c-0.098-0.238-0.195-0.465-0.289-0.691
	c0.094-0.148,0.18-0.289,0.273-0.438c0.016,0.035,0.027,0.055,0.035,0.078c0.059,0.148,0.117,0.301,0.184,0.449
	c0.035,0.086,0.047,0.168,0.039,0.258c-0.012,0.109-0.012,0.223-0.016,0.336C23.135,22.334,23.223,22.334,23.32,22.334z
	 M21.781,22.611c-0.309,0.07-0.488,0.301-0.578,0.635c-0.047,0.178-0.059,0.365-0.047,0.549c0.008,0.09,0.023,0.184,0.049,0.27
	c0.068,0.238,0.209,0.383,0.424,0.434c0.191,0.047,0.383,0.023,0.57-0.055c0.025-0.012,0.055-0.02,0.059-0.063
	c0.004-0.129,0.012-0.258,0.016-0.398c-0.047,0.02-0.082,0.035-0.117,0.051c-0.094,0.039-0.188,0.07-0.285,0.066
	c-0.137-0.004-0.227-0.078-0.266-0.23c-0.014-0.043-0.023-0.09-0.023-0.137c-0.016-0.18,0-0.355,0.07-0.523
	c0.07-0.16,0.184-0.227,0.34-0.195c0.063,0.012,0.121,0.039,0.184,0.063c0.027,0.008,0.051,0.023,0.082,0.039
	c0.051-0.133,0.098-0.262,0.145-0.398C22.199,22.6,21.992,22.564,21.781,22.611z M19.738,22.111c0.004-0.078,0.012-0.148,0.016-0.23
	c0.102,0,0.195,0,0.297,0c0.008-0.098,0.012-0.18,0.016-0.271c-0.105,0-0.195,0-0.297,0c0.008-0.064,0.012-0.121,0.016-0.182
	c0.109-0.004,0.215-0.008,0.32-0.012c0.004-0.094,0.008-0.176,0.016-0.254c-0.203,0-0.395,0-0.59,0
	c-0.027,0.418-0.055,0.82-0.082,1.223c0.199,0,0.395,0,0.586,0c0.008-0.027,0.012-0.047,0.016-0.063
	c0.148,0.086,0.297,0.098,0.449,0.055c0.059-0.016,0.117-0.051,0.164-0.094c0.188-0.18,0.16-0.496-0.055-0.629
	c-0.02-0.012-0.039-0.023-0.059-0.035c-0.035-0.02-0.07-0.043-0.105-0.066c-0.031-0.02-0.059-0.045-0.051-0.094
	c0.012-0.051,0.047-0.066,0.088-0.064c0.049,0.002,0.096,0.01,0.143,0.021c0.035,0.008,0.07,0.027,0.109,0.043
	c0.035-0.086,0.066-0.168,0.098-0.254c-0.094-0.055-0.184-0.082-0.277-0.082c-0.098-0.004-0.191,0.016-0.281,0.07
	c-0.188,0.113-0.227,0.508-0.004,0.637c0.047,0.023,0.09,0.051,0.137,0.078c0.023,0.02,0.051,0.031,0.074,0.055
	c0.043,0.039,0.039,0.098-0.008,0.133c-0.02,0.014-0.051,0.02-0.074,0.023c-0.086,0.008-0.164-0.02-0.242-0.055
	c-0.023-0.012-0.051-0.023-0.078-0.035c-0.004,0.055-0.008,0.098-0.012,0.152c-0.004-0.027-0.008-0.043-0.012-0.07
	C19.949,22.111,19.848,22.111,19.738,22.111z M19.066,15.279c0.133-0.008,0.258-0.018,0.383-0.027
	c0.008-0.098,0.016-0.188,0.023-0.277c0.008-0.094,0.016-0.184,0.02-0.277c0.055-0.004,0.102-0.01,0.145-0.016
	c0.277-0.025,0.473-0.211,0.527-0.504c0.012-0.055,0.02-0.109,0.02-0.164c0-0.244-0.098-0.398-0.32-0.438
	c-0.023-0.004-0.051-0.008-0.074-0.008c-0.195,0.012-0.395,0.025-0.602,0.039C19.145,14.174,19.105,14.721,19.066,15.279z
	 M19.547,13.943c0.051,0,0.098-0.008,0.145-0.004c0.063,0.008,0.09,0.047,0.094,0.117c0.008,0.145-0.074,0.254-0.203,0.258
	c-0.016,0.002-0.031,0-0.063,0C19.527,14.189,19.535,14.072,19.547,13.943z M18.449,28.76c-0.02,0.27-0.035,0.535-0.057,0.801
	c-0.006,0.074-0.021,0.148-0.045,0.215c-0.023,0.09-0.086,0.133-0.166,0.129c-0.033,0-0.068-0.008-0.104-0.012
	c-0.023-0.004-0.051-0.012-0.078-0.02c-0.012,0.16-0.023,0.309-0.035,0.461c0.033,0.01,0.059,0.02,0.086,0.023
	c0.051,0.008,0.1,0.016,0.15,0.02c0.252,0.016,0.443-0.113,0.549-0.375c0.059-0.137,0.086-0.285,0.098-0.438
	c0.027-0.371,0.055-0.742,0.078-1.113c0.008-0.09,0.012-0.18,0.016-0.281c-0.148,0-0.293,0-0.449,0
	C18.477,28.369,18.461,28.564,18.449,28.76z M21.605,30.49c0.164,0.008,0.32,0.016,0.473,0.023c0.031-0.207,0.113-2.172,0.094-2.254
	c-0.148,0-0.297,0-0.457,0C21.676,29.006,21.641,29.744,21.605,30.49z M32.684,15.295c-0.203,0.012-0.395,0.027-0.598,0.039
	c0.012,0.59,0.023,1.168,0.035,1.762c0.207-0.012,0.398-0.02,0.605-0.031C32.711,16.471,32.699,15.885,32.684,15.295z
	 M32.953,20.838c0,0.16,0,0.32,0,0.484c-0.121,0-0.238,0-0.363,0c-0.004-0.16-0.012-0.316-0.016-0.477c-0.109,0-0.211,0-0.324,0
	c0.008,0.453,0.016,0.895,0.023,1.348c0.066,0,0.117,0,0.172,0c0.051-0.004,0.105-0.004,0.156-0.008c0-0.188,0-0.363,0-0.551
	c0.121,0,0.238,0,0.363,0c0.004,0.18,0.012,0.359,0.018,0.539c0.115,0,0.221,0,0.33,0c-0.012-0.457-0.023-0.902-0.035-1.344
	C33.195,20.814,33.008,20.82,32.953,20.838z M24.938,21.432c-0.035-0.238-0.172-0.383-0.379-0.406
	c-0.063-0.004-0.129-0.004-0.191,0.004c-0.199,0.027-0.34,0.148-0.406,0.367c-0.059,0.176-0.066,0.359-0.031,0.545
	c0.043,0.221,0.168,0.354,0.367,0.385c0.074,0.008,0.152,0.008,0.23-0.004c0.184-0.031,0.313-0.152,0.379-0.355
	c0.035-0.109,0.047-0.227,0.051-0.371C24.953,21.561,24.949,21.494,24.938,21.432z M24.613,21.877
	c-0.023,0.094-0.082,0.148-0.168,0.164c-0.094,0.016-0.172-0.031-0.199-0.137c-0.047-0.156-0.039-0.316,0.02-0.465
	c0.039-0.104,0.121-0.148,0.215-0.133c0.078,0.012,0.133,0.074,0.152,0.18c0.008,0.051,0.012,0.102,0.02,0.168
	C24.641,21.721,24.633,21.801,24.613,21.877z M32.582,12.494c0.016,0.613,0.031,1.215,0.043,1.828
	c0.164-0.012,0.316-0.023,0.473-0.035c-0.016-0.613-0.031-1.215-0.047-1.832C32.889,12.467,32.742,12.48,32.582,12.494z
	 M18.953,22.396c0.199-0.023,0.34-0.148,0.418-0.359c0.055-0.145,0.07-0.301,0.055-0.461c-0.023-0.215-0.133-0.352-0.324-0.387
	c-0.096-0.016-0.195-0.008-0.297-0.008c-0.055,0-0.109,0.004-0.172,0.004c-0.031,0.41-0.059,0.813-0.09,1.234
	C18.688,22.412,18.82,22.412,18.953,22.396z M18.984,21.451c0.082,0.004,0.137,0.051,0.152,0.145
	c0.023,0.133,0.016,0.262-0.035,0.387c-0.047,0.117-0.137,0.16-0.266,0.133c0.016-0.219,0.031-0.438,0.047-0.664
	C18.92,21.451,18.953,21.447,18.984,21.451z M32.207,20.92c-0.152-0.078-0.305-0.102-0.457-0.078
	c-0.219,0.031-0.387,0.191-0.445,0.434c-0.047,0.191-0.039,0.379,0.012,0.566c0.043,0.141,0.117,0.25,0.234,0.313
	c0.195,0.098,0.395,0.082,0.59,0c0.016-0.008,0.035-0.033,0.035-0.051c0.004-0.09,0-0.176-0.004-0.275
	c-0.043,0.018-0.074,0.033-0.105,0.041c-0.074,0.02-0.148,0.039-0.223,0.043c-0.082,0.004-0.152-0.039-0.188-0.129
	c-0.068-0.168-0.07-0.342-0.004-0.512c0.035-0.09,0.102-0.141,0.191-0.137c0.059,0.004,0.117,0.02,0.176,0.035
	c0.031,0.008,0.059,0.02,0.094,0.035C32.148,21.107,32.18,21.018,32.207,20.92z M25.773,21.287c0-0.094,0-0.18,0-0.281
	c-0.27,0.008-0.535,0.014-0.809,0.02c0,0.098,0,0.188,0,0.281c0.082,0,0.164,0,0.25,0c0,0.34-0.027,0.664-0.02,0.996
	c0.102,0,0.195,0.004,0.289-0.004c0.008-0.336,0.02-0.66,0.027-0.996C25.602,21.295,25.684,21.291,25.773,21.287z M21.691,21.389
	c0.09-0.004,0.168-0.008,0.25-0.012c0.004-0.096,0.008-0.18,0.012-0.277c-0.262,0.008-0.512,0.016-0.773,0.023
	c-0.004,0.094-0.008,0.18-0.012,0.273c0.086,0,0.16,0,0.242,0c-0.012,0.328-0.039,0.645-0.047,0.965c0.098,0,0.182,0,0.277,0
	C21.66,22.033,21.676,21.713,21.691,21.389z M32.891,20.342c0.02,0,0.039,0,0.059,0c0.238-0.027,0.348-0.219,0.289-0.488
	c-0.027-0.109-0.09-0.18-0.184-0.215c-0.09-0.031-0.18-0.027-0.27-0.004c-0.164,0.043-0.246,0.164-0.242,0.357
	c0.004,0.178,0.086,0.295,0.238,0.334c0.035,0.012,0.074,0.016,0.109,0.02V20.342z M20.805,22.369c0.098,0,0.184,0,0.277,0
	c0.023-0.418,0.047-0.828,0.07-1.242c-0.094,0-0.18,0-0.277,0C20.852,21.549,20.828,21.959,20.805,22.369z M33.406,30.459
	c-0.113-0.066-0.23-0.07-0.348,0c-0.023,0.012-0.047,0.039-0.063,0.066c-0.098,0.156-0.039,0.418,0.113,0.5
	c0.063,0.031,0.133,0.047,0.203,0.039c0.156-0.02,0.234-0.121,0.23-0.309C33.547,30.635,33.512,30.521,33.406,30.459z M28.75,24.635
	c0.086-0.238,0.141-0.48,0.195-0.727c0.012-0.047,0-0.066-0.043-0.066c-0.117-0.004-0.234,0-0.355,0
	c-0.039,0.266-0.08,0.523-0.121,0.793C28.535,24.635,28.641,24.635,28.75,24.635z M32.867,14.658
	c-0.191,0.012-0.363,0.023-0.539,0.035c-0.035,0-0.047,0.031-0.059,0.063c-0.043,0.137-0.09,0.27-0.133,0.406
	c-0.008,0.023-0.008,0.047-0.016,0.078c0.18-0.012,0.35-0.023,0.527-0.035C32.723,15.021,32.789,14.846,32.867,14.658z
	 M20.688,13.033c-0.02-0.016-0.039-0.035-0.063-0.035c-0.082,0-0.164,0.008-0.254,0.016c0.012,0.027,0.014,0.043,0.02,0.055
	c0.066,0.09,0.133,0.176,0.195,0.268c0.02,0.025,0.039,0.025,0.066,0.025c0.098-0.012,0.195-0.02,0.297-0.027
	c0.027,0,0.047-0.012,0.066-0.039c0.074-0.102,0.152-0.199,0.227-0.299c0.008-0.014,0.016-0.029,0.023-0.045
	c-0.184-0.037-0.332,0.027-0.453,0.191C20.766,13.1,20.727,13.066,20.688,13.033z M25.453,27.912c-0.02,0-0.039-0.004-0.063-0.004
	c-0.113-0.004-0.227-0.008-0.344-0.012s-0.102-0.031-0.156,0.113c-0.031,0.074-0.063,0.145-0.078,0.23
	c0.102,0.008,0.191,0.012,0.285,0.012c0.023,0,0.055-0.012,0.074-0.031c0.098-0.094,0.191-0.191,0.289-0.287
	C25.457,27.928,25.457,27.92,25.453,27.912z M17,43.717c0.402,0.058,0.805,0.124,1.211,0.179c0.004-0.027,0.006-0.043,0.008-0.057
	c0.016-0.255,0.031-0.509,0.051-0.763c0.027-0.43,0.055-0.855,0.082-1.281c0-0.043,0.016-0.07,0.047-0.09
	c0.07-0.047,0.137-0.094,0.207-0.141c0.039-0.027,0.082-0.055,0.127-0.086c0.252,0.879,0.502,1.746,0.752,2.612
	c0.773,0.117,1.539,0.23,2.313,0.348c0.102-0.408,0.199-0.812,0.301-1.222c0.525,0.074,1.043,0.148,1.566,0.223
	c0.066,0.44,0.135,0.874,0.203,1.312c0.496,0.074,0.98,0.152,1.477,0.223c-0.012-0.078-0.023-0.137-0.035-0.211
	c0.035,0.02,0.059,0.035,0.082,0.051c0.23,0.156,0.473,0.277,0.734,0.344c0.203,0.051,0.406,0.09,0.609,0.121
	c0.238,0.039,0.48,0.031,0.715-0.023c0.621-0.152,1.027-0.57,1.203-1.273c0.094-0.37,0.094-0.749,0.043-1.128
	c-0.059-0.398-0.199-0.754-0.445-1.047c-0.109-0.125-0.223-0.25-0.348-0.355c-0.219-0.184-0.449-0.348-0.672-0.523
	c-0.156-0.121-0.309-0.25-0.457-0.379c-0.082-0.07-0.145-0.164-0.18-0.281c-0.063-0.223,0.043-0.434,0.242-0.488
	c0.043-0.008,0.086-0.016,0.129-0.016c0.133-0.004,0.266,0.023,0.395,0.063c0.309,0.098,0.59,0.262,0.863,0.449
	c0.027,0.02,0.055,0.035,0.09,0.059c0.145-0.453,0.285-0.898,0.426-1.336c-0.004-0.012-0.004-0.012-0.008-0.016
	c-0.008-0.008-0.016-0.016-0.023-0.02c-0.492-0.332-1.012-0.563-1.582-0.617c-0.277-0.023-0.559-0.02-0.828,0.07
	c-0.52,0.168-0.859,0.539-0.996,1.145c-0.055,0.25-0.066,0.512-0.055,0.77c0.023,0.529,0.188,0.988,0.512,1.367
	c0.152,0.176,0.316,0.324,0.492,0.465c0.238,0.184,0.48,0.363,0.715,0.551c0.086,0.07,0.164,0.152,0.234,0.238
	c0.043,0.055,0.078,0.129,0.098,0.199c0.066,0.246-0.02,0.523-0.301,0.585c-0.043,0.008-0.09,0.008-0.137,0.008
	c-0.203,0.004-0.398-0.054-0.59-0.124c-0.371-0.141-0.715-0.348-1.039-0.605c-0.023-0.02-0.047-0.051-0.09-0.059
	c-0.008,0.281-0.016,0.555-0.023,0.827c-0.016-0.008-0.02-0.02-0.02-0.031c-0.039-0.183-0.078-0.37-0.117-0.554
	c-0.262-1.254-0.523-2.504-0.781-3.758c-0.09-0.422-0.176-0.844-0.266-1.266c-0.016-0.086-0.02-0.086-0.094-0.094
	c-0.145-0.012-0.293-0.027-0.441-0.043c-0.33-0.035-0.66-0.07-0.992-0.102c-0.063-0.008-0.121-0.012-0.188-0.016
	c-0.527,1.824-1.059,3.641-1.594,5.477c-0.016-0.047-0.027-0.07-0.035-0.094c-0.297-0.906-0.59-1.813-0.891-2.715
	c-0.02-0.066-0.012-0.109,0.02-0.16c0.211-0.344,0.414-0.691,0.621-1.035c0.293-0.488,0.93-1.551,0.93-1.551
	s-0.91-0.086-1.348-0.129c-0.488,0.832-0.973,1.656-1.465,2.5c0.059-0.887,0.113-1.758,0.172-2.633
	c-0.398-0.039-0.785-0.078-1.176-0.121C17.434,37.588,16.98,43.643,17,43.717z M23.438,41.908c-0.336-0.043-0.668-0.086-1.008-0.129
	c0.205-0.891,0.426-1.766,0.594-2.668C23.164,40.049,23.301,40.975,23.438,41.908z M26.109,37.76
	c-0.516-0.051-1.023-0.102-1.535-0.148c-0.07-0.426-0.145-0.848-0.219-1.281c-0.535-0.047-1.074-0.094-1.621-0.141
	c-0.098,0.402-0.195,0.801-0.297,1.211c-0.484-0.039-0.969-0.094-1.461-0.141c0.617-2.09,1.23-4.172,1.848-6.262
	c0.031,0,0.059,0,0.09,0c0.43,0.023,0.863,0.043,1.293,0.066c0.102,0.004,0.199,0.008,0.301,0.012
	c0.066,0.004,0.066,0.004,0.082,0.082c0.168,0.719,0.332,1.439,0.5,2.16C25.383,34.607,26.086,37.654,26.109,37.76z M24.117,34.846
	c-0.082-0.461-0.16-0.91-0.234-1.359s-0.145-0.902-0.215-1.352c-0.176,0.883-0.395,1.746-0.602,2.633
	C23.422,34.795,23.762,34.818,24.117,34.846z M29.875,36.619c-0.156,0.637-0.52,1.049-1.061,1.258
	c-0.205,0.082-0.416,0.121-0.631,0.125c-0.43,0.008-0.852-0.055-1.266-0.199c-0.211-0.078-0.41-0.191-0.605-0.32
	c-0.02-0.012-0.043-0.027-0.074-0.047l-0.043-0.246c-0.086-0.48-0.324-1.297-0.406-1.801c0.045,0.031,0.512,0.441,0.543,0.461
	c0.375,0.266,0.777,0.469,1.215,0.574c0.18,0.047,0.363,0.078,0.551,0.051c0.027-0.004,0.059-0.012,0.086-0.02
	c0.285-0.086,0.391-0.449,0.211-0.719c-0.066-0.098-0.148-0.176-0.238-0.242c-0.199-0.137-0.402-0.277-0.602-0.41
	c-0.234-0.156-0.461-0.316-0.664-0.52c-0.379-0.371-0.566-0.844-0.586-1.41c-0.008-0.297,0.008-0.586,0.098-0.867
	c0.109-0.348,0.305-0.617,0.586-0.809c0.039,0.035,0.076,0.07,0.113,0.102c0.273,0.234,0.547,0.469,0.82,0.703
	c0.035,0.031,0.07,0.043,0.109,0.043c0.172,0.008,0.344,0.016,0.516,0.027c0.043,0.004,0.07-0.012,0.102-0.039
	c0.258-0.242,0.512-0.48,0.773-0.715c0.125-0.113,0.074-0.102,0.215-0.031c0.094,0.043,0.184,0.098,0.281,0.152
	c-0.145,0.449-0.289,0.895-0.434,1.344c-0.035-0.02-0.066-0.035-0.094-0.055c-0.285-0.172-0.578-0.32-0.898-0.395
	c-0.17-0.043-0.344-0.07-0.518-0.031c-0.025,0.008-0.053,0.016-0.076,0.027c-0.188,0.082-0.266,0.309-0.18,0.516
	c0.039,0.098,0.102,0.172,0.176,0.227c0.195,0.145,0.391,0.285,0.586,0.422c0.242,0.16,0.49,0.309,0.715,0.504
	c0.129,0.113,0.254,0.234,0.359,0.379c0.184,0.246,0.297,0.535,0.348,0.852C29.965,35.881,29.965,36.252,29.875,36.619z
	 M31.984,38.904c-0.633-0.063-1.266-0.125-1.902-0.191c-0.57,2.242-1.141,4.473-1.711,6.702c0.086,0.035,1.531,0.25,1.59,0.238
	c0.09-0.426,0.176-0.855,0.266-1.289c0.594,0.082,1.18,0.166,1.77,0.25c0.098,0.469,0.195,0.934,0.297,1.406
	c0.555,0.086,1.105,0.168,1.676,0.254C33.305,43.81,32.645,41.361,31.984,38.904z M31.66,42.979
	c-0.383-0.051-0.754-0.098-1.137-0.148c0.09-0.477,0.188-0.945,0.273-1.414s0.168-0.938,0.25-1.406
	C31.25,40.994,31.453,41.979,31.66,42.979z M33.711,36.865c0.016,0.523,0.027,1.043,0.043,1.578
	c-1.125-0.105-2.242-0.215-3.363-0.324c-0.016-2.254-0.031-4.496-0.043-6.734c0.008-0.008,0.008-0.008,0.012-0.012l0.004-0.004
	c0.086,0,0.172,0,0.258,0.006c0.977,0.049,1.957,0.096,2.945,0.146c0.012,0.484,0.023,0.961,0.039,1.453
	c-0.598-0.035-1.184-0.07-1.785-0.104c0.008,0.354,0.012,0.693,0.016,1.049c0.555,0.035,1.105,0.074,1.664,0.109
	c0.012,0.5,0.023,0.992,0.039,1.502c-0.563-0.041-1.113-0.084-1.68-0.127c0.008,0.434,0.016,0.863,0.023,1.301
	C32.492,36.76,33.098,36.811,33.711,36.865z M22.367,30.975c-0.625,2.066-1.59,4.166-2.215,6.23
	c-0.498-0.039-1.813-0.188-1.813-0.188s-0.309-4.125-0.402-6.246c0.055-0.016,1.211,0.031,1.352,0.055
	c0.008,0.055,0.016,0.109,0.023,0.168c0.094,0.656,0.191,4.762,0.156,4.488c0.031-0.172,1.254-3.715,1.457-4.473
	c0.008-0.031,0.02-0.066,0.031-0.105C21.426,30.924,21.891,30.947,22.367,30.975z M28.031,31.186
	c0.238-0.027,0.457-0.016,0.676,0.016c-0.02,0.047-0.211,0.238-0.344,0.348C28.258,31.436,28.152,31.318,28.031,31.186z
	 M27.566,20.643c0.043,0.055,0.086,0.109,0.125,0.168c0.023,0.035,0.051,0.051,0.09,0.047c0.063-0.004,0.125-0.008,0.191-0.008
	c0.035,0,0.059-0.012,0.082-0.047c0.043-0.066,0.094-0.129,0.145-0.195c0.008-0.012,0.016-0.027,0.023-0.047
	c-0.145-0.043-0.254,0.012-0.355,0.133c-0.09-0.129-0.203-0.152-0.344-0.113C27.543,20.607,27.555,20.623,27.566,20.643z
	 M31.145,20.475c-0.104,0-0.207,0-0.309,0.004c-0.016,0-0.035,0.02-0.047,0.031c-0.051,0.07-0.105,0.141-0.156,0.211
	c-0.012,0.012-0.016,0.031-0.027,0.055c0.059,0,0.109,0.004,0.16,0c0.023,0,0.051-0.004,0.07-0.016
	c0.105-0.086,0.211-0.176,0.316-0.262C31.152,20.49,31.148,20.482,31.145,20.475z M27.861,22.529
	c0.002-0.113-0.068-0.191-0.174-0.191c-0.109-0.004-0.184,0.078-0.184,0.199s0.063,0.195,0.172,0.195
	C27.789,22.732,27.859,22.65,27.861,22.529z M27.68,22.436c0.047-0.004,0.086,0.043,0.086,0.098c0,0.051-0.035,0.098-0.082,0.102
	c-0.051,0.008-0.086-0.031-0.088-0.09C27.594,22.482,27.633,22.436,27.68,22.436z M21.172,20.943
	c0.047-0.051,0.102-0.09,0.152-0.133c0.016-0.016,0.031-0.031,0.047-0.047c-0.004-0.008-0.004-0.012-0.004-0.02
	c-0.094,0-0.184,0.004-0.277,0.008c-0.008,0-0.016,0.008-0.02,0.016c-0.063,0.082-0.125,0.164-0.195,0.256
	C20.996,21.045,21.09,21.033,21.172,20.943z"/>
</svg>
